<svg xmlns="http://www.w3.org/2000/svg" viewBox="0 0 497.89 928"><defs><style>.cls-1{opacity:0.2;}.cls-2{fill:#020202;}.cls-3{fill:#080808;}.cls-4{fill:#0c0c0c;}.cls-5{fill:#101010;}.cls-6{fill:#fefefe;}.cls-7{fill:#fcfcfc;}.cls-8{fill:#fdfdfd;}.cls-9{fill:#fbfbfb;}.cls-10{fill:#fafafa;}.cls-11{fill:#070707;}.cls-12{fill:#f5f5f5;}.cls-13{fill:#f6f6f6;}.cls-14{fill:#f7f7f7;}.cls-15{fill:#151515;}.cls-16{fill:#2f2f2f;}.cls-17{fill:#fff;}.cls-18{fill:#a1a1a1;}.cls-19{fill:#6e6e6e;}.cls-20{fill:#b6b6b6;}.cls-21{fill:#838383;}.cls-22{fill:#bdbdbd;}.cls-23{fill:#f9f9f9;}.cls-24{fill:#959595;}.cls-25{fill:#d6d6d6;}.cls-26{fill:#a8a8a8;}.cls-27{fill:#666;}.cls-28{fill:#2c2c2c;}.cls-29{fill:#050505;}</style></defs><title>Recurso 5</title><g id="Capa_2" data-name="Capa 2"><g id="Capa_3" data-name="Capa 3"><g class="cls-1"><path d="M438.38,928c.05-12.61.05-25.21.18-37.82,0-2.47-.72-3.16-3-3.11-7.38.14-14.77-.12-22.15.13-3.22.1-4.68-.77-4.19-4.47a21.75,21.75,0,0,0,0-5.1c-.27-2.51.69-3.59,2.91-4.25,4.54-1.34,9-3,12.85-6.13s4.2-6.12,1.07-10.27c-16.92-22.35-25.88-48.3-29.61-76.66-.77-5.89.19-11.48,1.56-17.1q29.2-120.44,58.28-240.91c.84-3.48,1.94-4.77,5.33-4.27,7,1,14.07,1.31,21.05,2.66,3.5.67,6.42,2.67,9.66,3.87,1.59.6,3.52,1.34,4.88-.28,1.62-1.91-.29-3.41-1-4.95-2.15-4.5-5.23-6.82-10.27-7.22a65.84,65.84,0,0,1-22.88-5.59c-4.8-2.25-4.76-2.58-1.51-6.94,7.11-9.55,14-19.32,17.93-31,1.46-4.28,2.86-8.75.28-13.22-2.36.12-2.51,2.19-2.85,4s-.17,3.39-.87,5a70.94,70.94,0,0,1-6.88,16.2c-1.61,2.73-2.8,3.72-4.2-.05a28.73,28.73,0,0,0-9.73-12.92c-8.94-6.83-10.69-16.84-10.69-27.47A40,40,0,0,0,443,427.55c-5.14-15.93-11.37-31.4-16.6-47.3a213,213,0,0,1-7.12-25.95c-1.09-5.58,0-11.23-.79-16.81a133,133,0,0,0-13.19-41.38c-9.57-18.64-14.46-38.7-18.64-59.2-2.37-11.62-4.37-23.47-10.55-33.7-1.12-1.86-1.9-5.32-4.41-4.3-2.14.87-.79,4-.57,6.08,1.23,11.67,1.57,23.42,2.72,35.09a26.25,26.25,0,0,1-1.25,10.81c-6.66-10.7-13.39-20.29-18.71-30.91a9.22,9.22,0,0,1-.58-5.48c2.19-16.6,6.93-32.52,10.85-48.67.9-3.66,2.71-4.57,5.92-3a161.42,161.42,0,0,1,19.34,10.58,22,22,0,0,1,9.25,13c4.83,17.36,7.31,35.22,10.28,53,1.48,8.84,3.1,17.68,6.84,25.84,1.58-.11,1.52-1.11,1.07-2.32C412.18,240,408.94,216.85,404,194c-3.24-14.88-10-25.11-23.48-30.1-6.5-2.4-12.65-5.88-19.06-8.57-5.14-2.15-8.76-6.47-13.05-9.83-2.23-1.74-.22-3,.5-4.17,4.3-6.89,8.72-13.7,13.11-20.53a25.36,25.36,0,0,0,3.85-8.07c.53-1.13.57-2-.81-2.41-2.6,1.62-3.67,4.6-5.19,7.13-2.8,4.62-6.43,8.37-10.13,12.06a4.39,4.39,0,0,1-5.64,1c-1.68-.9-3-2.21-2.68-4.35,1.61-11.06,1.13-22.49,4.87-33.19,2.64-8.92,2.22-18,1.58-27.18-.29-4.15-2.13-7-6.17-7.67a2,2,0,0,0-1.12,1.08c-1,3.67-.49,7.44-.54,11.17a14.23,14.23,0,0,1-3.18,9.3c-4,4.92-6.11,10.33-2.37,16.69,1.07,1.81.8,3.94.47,6-1.78,11.24.85,22.39.58,33.61-.07,2.55,1.61,4.36,3.4,5.85,3.38,2.82,6.2,6.26,9.26,9.44,2.07,2.16,2.41,4.13.19,6.49-6.5,6.91-12.94,13.89-18.85,21.42-2.23,2.85-5.19,4.13-8.53,4.95-17.61,4.32-35.28,8.36-52.57,14.1a145.21,145.21,0,0,0-16,6.17c-6.28,2.93-6.37,2.84-7.2-4.27a94.68,94.68,0,0,0-2.15-12.54c-.94-3.68-2.37-7.19-4.88-9.79-4.87-5.06-9.87-10-14.72-15.05-.9-.95-2.05-1.84-3.38-1.2s-1.07,2.27-1,3.59c.11,3.92,1.18,7.73,1.13,11.68-.1,6.83-2.95,9.56-9.23,8.76a149.22,149.22,0,0,1-28.92-7c-12.59-4.25-25.16-8.59-37.64-13.23a55.13,55.13,0,0,0-10.94-3c-2.53-.38-4.44-1.55-5.13-4.45-3.37-14-7-27.94-10.33-42a26.13,26.13,0,0,1-.3-5.08c-.31-1.48.27-2.81.66-4.18.32-5.58-1.92-9-6.67-11.52-7.32-3.85-14.37-8.34-21.55-12.53a9.26,9.26,0,0,1-5-8.08c-.47-11.88-1.2-23.74-2-35.6a4,4,0,0,1,.69-2.85c2.2,1.57,2.93,4.16,3.87,6.51C93,55.87,99.78,68.39,105,81.72a7.83,7.83,0,0,0,2.13,3.33c.84.37,2.71,5.84,3.1,5.08-.31-6.38-4.84-17.66-6.74-23.46C101.26,60,99,56.87,96.14,50.5a15,15,0,0,0-.67-1.4c-2.35-3.67-5.3-10.5-4.8-15.26,1-9.76-2.5-17.86-7.92-25.26C76.08,1.67,69.14,3.25,62.23,8,50.39,16.1,47.62,19.36,55.85,36.92c1.44,3.08,4.11,4.63,7,5.66,4.06,1.46,6.45,4.31,7.63,8.84C72.1,57.63,74.24,63.67,76,69.83c1.67,5.72,1.43,6-3.78,4.83-8.45-1.87-16.72-4.57-25.14-6.55-2.6-.61-6.07-2.94-7.83.08-1.91,3.26-.55,7.52,1.52,10.49a15,15,0,0,1,2.58,7.93,16.61,16.61,0,0,1,.36,5.07q0,38.57,0,77.15a68.57,68.57,0,0,0,.51,9.17c.39,2.93-.58,4.76-3.57,4.34-7.26-1-14.38.56-21.55,1.18-3.79.32-4.15,0-3-4.14,4.19-14.47,9.13-28.65,13.5-43,.68-2.25,1.63-4.46,1.15-7-.28-.87-.69-1.59-1.67-1.61-2.9,2.74-3.48,6.77-4.69,10.38-4.73,14.09-9.61,28.12-14.18,42.27-1.21,3.74-3,6.59-6.31,8.49-2.07,1.2-4.2,2.74-3.95,5.8s2.73,4,4.86,5c6.33,2.73,13,3.91,19.72,4.81,13.12,1.76,26.26,2.64,39.43.58a37.22,37.22,0,0,0,9.57-2.66c8.36-3.72,9.21-7.83,3.13-15-1-.67-1.67,0-2.11.89-1,2.18-.56-.89-1.11-.37C68,185,62.06,184.46,56.14,183.73c-5-.61-5.73-1.28-5.8-6.57-.29-24.7-2.14-49.35-1.91-74.06,0-4.28-1.34-8.4-1.15-12.68-1.67-2.13.38-2.14.66-3.36.42-2.55,2.41-2.87,4.44-1.94C62.08,89.54,71.87,93.71,81.6,98a8.16,8.16,0,0,1,4.51,5.51q6.45,21.1,13,42.17a11.49,11.49,0,0,1-.26,7.46c-7,20.44-14.15,40.8-21.12,61.25A13,13,0,0,1,73.79,220c-4.12,3.66-4.28,6.55-.35,10.54,6.64,6.73,14.89,10,23.59,12,13.09,2.93,25.92.78,38.61-3,3.51-1.05,6.46-3.41,9.48-5.4,4.14-2.74,4.39-7.69,1-11.74a13.77,13.77,0,0,1-3.07-5.64c-3-12.71-6.35-25.31-9.5-38-1.11-4.42-.91-4.57,3.12-3.13,3.12,1.12,6.21,2.25,9.53,2.34,13.3,4,26.33,9.12,39.86,12.22,9.5,2.18,19.24,3.26,27.95,8.51,11.32,6.84,18.51,16.4,20.58,30.95,4.68,32.83,10.1,65.53,15.37,98.26,1.28,8,.75,15.61-3.94,21.87-7.22,9.65-9.83,21.15-12.5,32.69-8.88,38.36-15.3,77.27-21.62,116.19-5.77,35.56-11,71.23-16.58,106.83a10,10,0,0,0,1.33,7.14c5.13,8.77,9.66,18,15.17,26.46,7.69,11.81,11.86,24.8,14.28,38.91,2.23,13,5.45,25.87,8.67,38.66,1.14,4.54,1.45,9.78,5.8,12.88.73.53.63,2.52.79,3.86q4.05,33.19,8.06,66.4c.62,5.09-1.16,9.75-2,14.55-3.3,18.05-6.86,36-10.11,54.1-.58,3.24-1.8,4.07-4.66,4-7.69-.2-15.4,0-23.1-.15-2.7-.07-3.36.83-3.38,3.68-.09,11.08-.19,11.08-10.62,11.08-5,0-10.06.15-15.09-.06-2.61-.11-3.53.66-3.49,3.62.16,12.44.13,24.88.16,37.33Z"/><path class="cls-2" d="M260.12,101.81a1.87,1.87,0,0,1-.58.93c-4.83,4.2-9.6,8.49-14.51,12.57-8.45,7-11.6,15.91-9.11,27.25.44,2,1.26,4.19.68,6.33a1.91,1.91,0,0,1-1.5,1.26c-.44.11-.59.66-.63,1.37a5.77,5.77,0,0,0,5.13,3c10,.52,20,2.71,29.94,3.13,7.78.33,15.63-.68,23.47-.83,2.37,0,3.95-1.36,3.51-4.22-2.59-16.77-4.88-33.61-7.9-50.31a1.65,1.65,0,0,0-.43-.79,26,26,0,0,1,9,17c.88,8.1,2.5,16.1,3.61,24.18.67,4.84,3.29,7,7.43,7.83,8.82,1.75,15-1.48,18.86-10.34a62.59,62.59,0,0,0,4.75-18.08v0a1.83,1.83,0,0,0-3.49-.49c-.35.77-.59,1.63-.93,2.4-2.15,4.92-4.12,9.94-7,14.41a19.33,19.33,0,0,1-5.35,5.67c-4.8,3.18-9,1.55-9.85-4.4-1.45-10.34-3.25-20.62-5-31.47a1.82,1.82,0,0,1,2.16-2.08c4.5,1,8.76.41,13-.57a15.4,15.4,0,0,0,8.33-4.39c3.77-4.1,3.32-9.27-1.49-11.7-6.53-3.3-13.36-5-20.4-1.44-2.7,1.38-5.48,2.52-8.11,4.06-3.56,2.07-5.23,1.42-7.3-2.4s-2.1-9.61-3.32-14a1.78,1.78,0,0,0-1.71-1.28h-.14c-4.47,5.62-8.93,12.28-13.33,18-.68.88-1.28,2.19-2.53,2s-1.42-1.76-1.42-2.88c0-6.51-.34-5.77-1.57-8.42-.37-.36,1-3.47.59-3.2C261.13,85.86,261.66,95.43,260.12,101.81Z"/><path class="cls-3" d="M262.31,83.49c.11.55.21,1.42.32,2.16a.71.71,0,0,0,1.23.46c5.17-5.63,10.35-14,14.5-20.08a.73.73,0,0,1,1.32.5c0,2.75-.86,5.89,1.26,8.54l2.32-.2c1.44-2.81.71-5.91.26-8.82-.51-3.31.36-5.51,2.81-7.41a98.28,98.28,0,0,1,11-7.76c2.4-1.38,3.63-1.39,3.76,2.18.18,5.07,1.56,5.79,5.32,2.94,2.24-1.7,4.21-3.69,7.09-1.48a1.48,1.48,0,0,0,2.14-.27,2.43,2.43,0,0,0,0-2.42,8.79,8.79,0,0,0-5.15-4.89c-.9-.39-1.79-1-1.4-2.25s1.45-1.13,2.4-1a6.73,6.73,0,0,1,3.77,2c5.16,5.37,12.18,5.69,18.41,8.18a1.53,1.53,0,0,0,1.22-1.24.87.87,0,0,0-.11-.55c-2.52-4.28-6.83-5.39-10.83-6.93-1.92-.75-4-1.11-5.53-2.67C313,37,307,38,301.45,41.62c-4.94,3.19-10.54,4.34-15.57,7.14a4.57,4.57,0,0,1-6-1.5c-1.7-2.26,0-4.14,1.18-5.91,3-4.54,7.65-7.2,11.17-11.17a.87.87,0,0,0,.21-.49,1.43,1.43,0,0,0-1-1.43,1.72,1.72,0,0,0-1.28,0c-.69.22-1.21-.7-.74-1.3,5.27-6.64,11.24-11.93,19.69-12.78,13.74-1.38,25.28,8.08,30.57,20,.7,1.58-3.84-.23-1.6,1.82a.86.86,0,0,1,.25.5c.47,3.43,3.22,5,5.17,7.21,5.07,5.65,5.19,12.38,4.87,19.71-.24,5.38-.48,11.06.85,16.31a16.88,16.88,0,0,0,7.16,9.67c.81-.14,1.39-.45,1-1.52-5.17-5.67-5-12.58-5.21-20.08-.28-12.22-1.05-24.46-1.19-36.7a12.71,12.71,0,0,0-3.25-8.68A123.74,123.74,0,0,0,327.61,4.1c-4.2-3.1-8.13-4.69-12.78-3-3.43,1.27-5.46,1.42-8.48,0A13.33,13.33,0,0,0,292.9,2.79a68,68,0,0,0-13.51,13.35,28.14,28.14,0,0,0-6,19.81c.64,7.78.84,15.6,1.4,23.39a10.07,10.07,0,0,1-2.45,7.39c-4,4.48-8.77,8.41-10.05,14.91A4.8,4.8,0,0,0,262.31,83.49Z"/><path class="cls-4" d="M477.22,464.57c1.95-2.71-.37-6.81,2.56-9.19,1.18-6.85,3.85-13.29,4.63-20.26.68-6.18.76-12.26-2-17.95-3.91-8.18-9.16-8.5-13.71-.81a64.76,64.76,0,0,0-3.67,7.7c-1,2.43-1.89,5-3,7.82-3-2.68-4-6-4.6-9.72-2.91-18.27-5.93-36.51-8.91-54.76-1-.06-1.35.64-1.65,1.46-.37,7.22,1.58,14.13,2.6,21.15,1.51,10.42,3,20.85,4.56,31.26a23.28,23.28,0,0,0,4.15,10.66,134.18,134.18,0,0,1,9.21,14.8,14.8,14.8,0,0,0,2.69,4.17c3.54,3.17,6.06,6.83,6,12.07A2.07,2.07,0,0,0,477.22,464.57Z"/><path class="cls-5" d="M447.68,368.68l.92-1.28a218.37,218.37,0,0,0-14.06-51.54c-2.41-5.91-6.61-10.74-8.51-16.94-1.49-.16-1.53,1.07-1.76,2.13,1.15,8.28,5.85,15,8.69,22.49,4.92,13.08,10.23,26,12.29,40.09C445.52,365.48,445.3,367.9,447.68,368.68Z"/><path d="M425,301c.38-.67-.08-1.8,1-2.08-3.92-11.74-6.07-24-9.22-36l-.95,2.05c-1.32,1.5-.68,3.21-.33,4.8,2.05,9.23,4.4,18.37,6.83,27.48C422.78,298.82,423.05,300.68,425,301Z"/><path d="M357.39,87.9l-.95,1.16c-.93,1.9.39,3.33.86,4.94,2.64,5.49,4.91,11.18,7.63,16.63l.9,2.11c1.12-1.57.63-3.2.16-4.82A74.11,74.11,0,0,0,357.39,87.9Z"/><path class="cls-6" d="M340.29,245.62c-18.61,19.62-37.69,38.61-59.8,53.63a140,140,0,0,1-16.73,9.39c13.61,2.25,27.12,4.61,40.86,4.7,2.95,0,4.4-2.41,5.93-4.5,7.84-10.69,14.13-22.49,20.57-34.18,3.52-6.41,6.9-12.92,11.08-19.34-.24,2.83-.45,5.66-.73,8.49a305.71,305.71,0,0,1-5.37,36.3A22,22,0,0,1,326,314.69c-17.2,10.94-35.21,19.37-55.73,22.05,3.65,7.18,7.16,14.11,11.15,22-7.21-3.22-13.69-6-20.06-9-2.4-1.14-4.06-.84-6.35.68-8.4,5.55-13.09,13.29-15.25,23.79C237,388,233.17,401.52,229.35,415c-3.63,12.86-2.55,26-2.76,39.07-.74,45.85-1.65,91.71-1.08,137.57.07,5.45-.79,11.55,1.16,16.16,2.1,5,8.7,4.15,13.17,6.31,5.29,2.56,10.73,4.6,15.32,8.75,4,3.62,19,10.34,24.7,11.71C267,580.24,253.21,526.3,243.53,471.32l1.36-.38c3.56,11.53,7.05,23.09,10.69,34.59C269,548,281,591.39,300.42,631.11c25.07,51.38,45.21,105.1,68,157.53a16.29,16.29,0,0,0,.84,1.41c.31-.58.69-1,.67-1.34-.94-23.66-1.48-47.35-4.24-70.89a43.85,43.85,0,0,0-6.2-18.46c-4.18-6.74-7.86-13.84-11.76-20.78-1.27-5.58-4.63-10-7.33-14.69Q313.29,616.57,288.1,568c-.47-.79-.84-1.65-1.3-2.45.56.51.69,1.33,1.13,1.93,10,18.88,21.75,36.56,32.87,54.66,10,16.26,20.48,32.14,31,48,1.53,2.3,2.7,5.06,5.37,6.24,3.28,3.3,5.3,7.87,9.72,11.27-5.51-17.66-10.82-34.52-16-51.42-6.24-20.17-12.23-40.43-18.66-60.54-3.87-12.11-10.78-22.63-16.35-33.85-21.34-43-43.33-85.63-62.5-129.85-2-4.62-3.69-9.38-5.48-14.1-.15-.4.09-1,.18-1.84,9,15.33,17.74,30.45,26.75,45.36,21.16,35,42.26,70.12,67.11,102.3,2.41,3.12,5.15,5.94,7.73,8.9,1,.15,1.43-.26,1.22-1.36Q320.46,498,290.06,444.72c-8.13-14.3-16-28.76-23.35-43.57a12.56,12.56,0,0,1-.6-2.36c.58.36.89,1.09,1.54,1.36,33.55,50,67,100,102.43,148.44,4.45,6.09,8.85,12.29,15.14,18.44,1.22-48,3.74-94.81-2.64-142.66-4.53,5.38-8.12,10-12,14.22-17.48,19.05-27,20-47.22,4.65a104.87,104.87,0,0,1-14.61-13.15c2.82-.56,4.19,1.16,5.79,2,8,4.19,16.11,7.83,25.07,8.87a21.67,21.67,0,0,0,17.66-6.18c9.37-9.16,16.15-20.33,21.79-32.42a4,4,0,0,0,.28-3.37c-3.25-8.64-6.44-17.32-9.89-26.66-12.82,18.2-24.12,37.05-41.06,50.52,12.92-21.09,30.33-39.45,33.69-66.2-11.41,17.72-20.6,37.08-35.05,52.54,4.55-14.44,9.17-28.86,13.65-43.34,9.48-30.65,19.29-61.2,27.2-92.4.14-1.05.72-2.37-1.14-2.22-6.32,15.81-13.24,31.26-23.62,44.52a40.19,40.19,0,0,1-15.2,12.37c6.61-13.18,12.79-25.3,18.79-37.53a349.37,349.37,0,0,0,15.4-35c1.51-4.17,2.77-8.37,1.53-12.91-.45-1.62-.89-3.31-2.13-4.46-11-10.25-14.93-22.84-11.13-38.22,3.18-12.84,7.22-25.38,11-38,.4-1.33,1.75-3,.22-4.15-1.92-1.44-2.7.81-3.64,2-7.3,9.15-14.64,18.24-22.48,26.86a12.92,12.92,0,0,1-6.43,3.91c-16.12,4.33-32.2,8.84-48.35,13.07-10.59,2.78-20.27,8.16-30.44,12.11-2.57,1-2.19,2.89-2.08,4.89.44,8.64.9,17.28,1.41,26.84a.75.75,0,0,1-1.36.54l-6-8.58-1.1.54q4.39,22.77,8.8,45.55H251l8.58-42.91,1.19,0c.54,3.66.14,7.52,1.45,11.78,3.17-6.24,6.22-11.76,8.83-17.51,3.23-7.09,8.4-9.66,15.39-8.9a48.42,48.42,0,0,1,13.64,3.68c3.19,1.34,3.27,3.05,1.17,5.55-5.07,6.05-10,12.2-15.19,18.16-6.09,7.05-12.33,13.95-18.09,21.65,17.24-8.14,33.77-17.72,50.54-26.91l-26.32,25.09c-.15,1,.18,1.51,1.19,1.24,15.64-10.1,30.75-21.11,46-31.91,1.08-.56,2.45-.57,2.88-1.56A13.67,13.67,0,0,0,340.29,245.62Z"/><path class="cls-6" d="M398.14,684.12q5-22.5,9.94-45,13.86-62.31,27.76-124.6c1.33-5.93-.7-9.33-6.51-9.91-5.63-.56-11.3-.5-16.94-.89a30.52,30.52,0,0,1-7-1.23c-4.08-1.28-4.77-4.52-1.46-7.39,3-2.64,6.4-4.55,10-.63,1.87,2,4.45,2.38,7,2.69,7,.87,14.12.53,21.19.37,1.25,0,3,.56,2.29-2.27-4.14-17.29-4.16-35.09-5.17-52.75-.41-7.24-1.62-13.85-4.78-20.43-9-18.73-16.43-38.25-24.33-57.53-2.95-7.21-2.86-15-2.95-22.62a34.71,34.71,0,0,0-3.1-14.18c-6.43-14.39-12.51-29-18.58-43.55a89,89,0,0,0-11.44-19.47c-2.46,13.91-4.38,27.34-7.3,40.51-3.79,17.1-2,33.8,3.31,49.78,13.3,39.92,16.57,81.66,20.28,123.35,2.78,31.21,6.18,62.43,6.51,93.77.37,35.43,0,70.89.19,106.33,0,1.83,0,3.66,0,5.48Z"/><path class="cls-6" d="M333.84,53.41a1.28,1.28,0,0,1-.34-.14,28.26,28.26,0,0,0-10.36-4,8.49,8.49,0,0,1-5.25-2.92c-2.15-2.24-4.56-4.17-7.8-4.16-1.68,0-3.35.12-3,2.63.21,1.5-.59,3.78,2.61,3.19l.45-.06c1.95-.15,2.23,3.05.3,3.38a2,2,0,0,0-.49.16c-1.92.92-3.39,2.93-5.11,4.39-.57.48-1.46,1.18-1.92,1-1-.41-.92-1.53-.71-2.63a8.2,8.2,0,0,0,.11-3c-.48-2.49-1-4.37-4.17-2.37-4.85,3.12-9.54,6.45-14.14,10-1.65,1.25-2,2.8-1.89,4.81.24,4,.37,8.08.54,12.12a.49.49,0,0,0,0,.12c.61,5.74,1.26,11.45,4.56,16.33,2,3,4,4.07,7.4,1.66,8.06-5.72,16.7-8.61,26.25-4.26,2.47,1.12,5.26,2.06,5.49,5.53s-2.09,5.58-4.68,7c-6.63,3.61-13.58,3.45-20.62,2.29a1.65,1.65,0,0,0-1.75,2.12c2.44,10.34,3.6,20.82,5.25,31.19.61,3.84.93,7.63,4.8,9.1,4.12,1.56,7.42-.63,10.05-3.77,5.51-6.58,8.79-14.52,11.39-22.83a2,2,0,0,1,.33-.6c1.51-1.83,1.58-4.33,2.32-6.52.27-.61.57.6.13.11A18.31,18.31,0,0,0,332.2,120a4.14,4.14,0,0,1-.23,2c-1.48,6.43-2.88,12.9-5.65,18.87-4,8.66-13,11.65-20.84,7.19-1.76-1-1.89-2.47-2.15-4.13-1.45-9.05-3.51-18-4.18-27.15-.49-6.7-3.81-10.85-7.9-15.3a1.57,1.57,0,0,0-2.66,1.48c2.48,16.18,4.82,31.42,7.19,46.66.94,6.09,1,5.86-4.83,6.26-15.26,1.05-30.39-.18-45.48-2.47-3.24-.49-6.74.52-9.65-1.86a1.67,1.67,0,0,0-.4-.25c-6.41-2.59-13.11-1.81-19.69-1.59a64.89,64.89,0,0,0-14.86,2.22c-5.84,1.6-11.53-.06-17.22-.91-10.86-1.62-21.7-3.42-32.41-6-1.83-.45-3.65-1-5.49-1.41-11.5-2.46-19.28-9.1-22-22-.78-3.76-3.42-7.37-5.11-10.82-.47-1,0-3.13-1.67-1.12-.16.19-.33.14-.39.39-.8,3.39.12,6.58,1,9.84,3.31,13,6.51,25.95,9.76,38.92.48,1.93.52,4.07,3.09,4.44,13.18,1.87,25.21,8,37.8,12.13,13.2,4.31,26.24,9.25,40,11.25.94.13,1.87.3,2.81.37,8.31.64,10.53-1.55,10.18-10.69-.14-3.61-.58-7.21-1-10.78a1.59,1.59,0,0,1,2.39-1.65c11,7.22,19.47,21.27,21.37,35.87.18,1.34.23,2.71.4,4.06.69,5.36,1.11,5.46,5.72,3.2,15.24-7.48,31.49-11.42,47.62-15.69,8.53-2.26,17.13-4.22,25.71-6.24a8.93,8.93,0,0,0,4.83-2.89c7.56-8.41,15.12-16.83,22.84-25.08,1.84-2,1.71-3-.16-4.75-3.2-3-6-6.55-9.26-9.44a14.57,14.57,0,0,1-5.33-12.67c.54-10-2-20,.19-30,.41-1.9-.21-4.08-2-6.36-2-2.58-1.43-8.16,1.32-10.71,7.12-6.62,5.89-14.93,5.27-23.28a2.66,2.66,0,0,0-.12-.56C339.68,55.79,337,54.24,333.84,53.41Z"/><path class="cls-6" d="M425,301a320.4,320.4,0,0,1-9.17-36c-6.62-23.67-8.73-48.38-14.19-72.33-2.56-11.27-7.55-19.47-17.49-24.05-5.62-2.59-11.13-5.49-16.64-8.37-2-1.07-2.93-.8-3.6,1.76-4.45,17-9.2,33.95-11.76,51.48a13.71,13.71,0,0,0,1.7,9.71c6.4,10.27,12.69,20.61,19.63,30.78,2.59-18.5-.43-36.69-2-56,4.39,6.82,7.84,13.12,9.51,20.38q5.73,25,11.28,50.09a38.76,38.76,0,0,0,3,8.54c7.9,16.47,15.52,33.07,20.11,51.07a60.55,60.55,0,0,1,1.89,17.64c-.37,8.81,2.36,17.11,4.83,25.37,5.49,18.29,12.66,35.89,18.73,53.95a48.59,48.59,0,0,1,2.51,15.85c0,10.07,1.56,20,10,26.71a34.65,34.65,0,0,1,12.8,20.1c5.12-7.63,8.86-14.91,11-23.12.8-5.27-.36-9.56-4.58-12.91-4-3.19-5.26-8.79-8.37-12.77-6.48-8.29-9.5-17.77-10.62-28.54-1.45-14-3.93-27.79-6-41.67-3-18.74-9.46-36.15-16.83-53.24C428.79,310.68,426.16,306.19,425,301Z"/><path class="cls-7" d="M442.91,528.72c1-5.49,2.12-11,3.16-16.47.26-1.4,1.33-3.3-.73-3.84a3.2,3.2,0,0,0-3.81,2.25c-.85,2.38-1.55,4.82-2.2,7.28C427.4,563.3,417.28,609.17,407.11,655q-18.35,82.66-36.4,165.39c-1.91,8.67-2.18,17.53-2.44,26.63,4.77-6.39,11.22-11.37,13.22-19.95q25.44-108.89,50.89-217.76c7-29.87,13.83-59.78,21-89.59,1.21-5,.75-8.18-4.66-9.66-1.61,6.56-3.25,13.22-4.89,19.89-2.57,5.1-2.88,10.92-4.39,16.35-3.49,14.62-6.8,29.29-10.35,43.89-6.41,27.58-13.15,55.06-19.66,82.61-.48.56-.83-.49-.37,0,.15.16.32.08.4-.25,6.83-27.69,13.17-55.52,19.82-83.26,3.53-14.61,6.82-29.29,10.35-43.91C440.56,539.79,442.67,534.47,442.91,528.72Z"/><path class="cls-6" d="M275.05,673.36c-2.12,7.58-3.19,15.13-5.31,22.42-2.27,7.82-4.94,15.41-9.65,22-1.67,2.33-3.54,4.7-6,5.63-6,2.28-6.75,7.48-7,13.07a173.21,173.21,0,0,0,3.15,44.21c3.76,17.72,1.61,34.7-1.63,51.93-2.23,11.84-3.91,23.8-6.07,35.65-.66,3.62.44,4.65,3.47,4.19,6.82-1,13.46-3.25,20.45-3.22,2.69,0,1.12-2.28.84-3.39a114.79,114.79,0,0,1-3.71-21c-.37-6.07.09-11.74,4.2-16.69a20.45,20.45,0,0,0,4.37-12.7q1.53-70,2.9-140C275.07,674.72,275.05,674,275.05,673.36Z"/><path class="cls-8" d="M30.18,129.23C24.8,146.81,19.49,164.41,14,182c-1,3.23-1.6,4.49,2.61,3.55a79.65,79.65,0,0,1,25.3-1.59c2.39.24,3.78.09,3.75-3.25-.31-31-.49-62-.71-93,0-.72-.12-1.33-.85-1.56-.28.14-.57-.74-.85-.6"/><path class="cls-8" d="M46.14,89.32c1,30.24,2,60.48,2.85,90.72.09,3.47,1.06,4.74,4.19,5a73.17,73.17,0,0,1,21.16,4.34c1.52-5.16-1.2-9.6-2.46-14.11Q60.58,134.61,49.32,94C48.82,92.2,49.26,89.19,46.14,89.32Z"/><path class="cls-9" d="M357.34,93.55,358,91c-4.62-5.78-9.92-11.31-8.06-19.45a4.09,4.09,0,0,0-.52-3c-1.8-3,1.16-6.12.87-9.22-.81-8.7-3.5-16-10.35-21.16-.71-.53-1.6-1-1.62-2.2l-.36-.77c-7.15-6.55-15.52-10-24.67-11.5a25.25,25.25,0,0,0-8.32,0h0c-4.48,1.45-9.59,1.3-12.79,6,0,0,0,0,0,0a51.21,51.21,0,0,0-12.51,11.43c-1.62,2-3.48,4.52-.94,7.27a7,7,0,0,0,8.59,1.21c5-2.9,10.74-3.93,15.71-7.26,4.4-3,10-4.65,14.45,1.33A5.64,5.64,0,0,0,321,45.79c5.29.41,9.38,3.5,13.54,6.54,0,0,0,0,0,0,1.71,2.75,4.7,3.89,6.68,6.29l.06,0c3.68,1.4,5.46,4,5.75,8.45A94.08,94.08,0,0,1,345.15,93a.16.16,0,0,0,.16.19c3,.07,3.51-3.42,5.42-4.88a.16.16,0,0,1,.23,0C352.65,90.9,353.1,95.43,357.34,93.55Z"/><path class="cls-10" d="M345.24,815.19l-35.18-99.53c-3-8.53-6-17.06-9.6-25.48-.81,43.68,5.07,86.56,12.66,129.25,2.52-1.25.84-3.35.87-5.1l-8.1-83.66.55-.2q18.84,43,37.7,86C345.1,816.64,345.55,816.31,345.24,815.19Z"/><path class="cls-7" d="M102.09,153.74C94.51,175.36,86.94,197,79.27,218.9a225.14,225.14,0,0,1,48.73-.41c2.06.21,2.06-.89,1.82-2.39q-3.55-22.64-7.14-45.28a3.23,3.23,0,0,0-2.3-2.88c-1.34-.45-2.63-1.1-3.94-1.66C110.57,163.8,103.78,162.54,102.09,153.74Z"/><path class="cls-8" d="M358,93.2c-2.49.36-4.28-.6-5.09-3.28-1.27-4.21-3-3.5-4.73-.43a9,9,0,0,1-3.08,3.7c-4.13,6.12-1.92,13.54-3.49,20.2-.89,3.77-.71,7.82-1.6,11.58-.81,3.45.68,4.95,3,6.52s4.45,1.66,6.83-.3c6.64-5.5,11.16-12.75,15.09-20.56C364.14,104.12,360.91,98.74,358,93.2Z"/><path class="cls-7" d="M116.75,219.26c-11.76.41-23.44,1.89-35.12,3.26-1.91.22-4,.72-4.51,3-.45,1.91,1.23,2.93,2.48,3.93,14.25,11.39,31.67,11.34,45.34-.26,2.27-1.93,5.72-4,4.58-7.51-1.06-3.2-4.86-2.23-7.6-2.41C120.2,219.17,118.47,219.26,116.75,219.26Z"/><path class="cls-10" d="M303.36,872.43c-12.35-13.29-14.48-30.25-18.75-46.14-3.3-12.26-5.32-24.85-7.2-37.51-.63,9-2.53,17.81-.43,26.81,1.65,7.1,3,14.3,4.73,21.36,1.45,5.81,1.62,11.27-.81,16.9-2.71,6.26.05,11.94,2.45,17.53.59,1.36,1.85,1,2.91,1C291.57,872.44,296.88,872.43,303.36,872.43Z"/><path class="cls-11" d="M287.32,568c18.13,37.59,39.1,73.36,59.52,109.48a7.5,7.5,0,0,0,.92,1.12c.36-1,3.1-.84,1.51-2.7-4.76-5.55-7.37-12.44-10.58-19-.7-1.44-2-2.54-3.21-4.09,3.79.91,4,.73,7.94,7.15,2.05,3.39,4.76,6.26,6.5,9.79s4.34,6,6.43,9c1.66-.32-.37-2,.86-2.43-11.65-18.1-23.45-36.09-34.92-54.32s-22.62-36.72-33.92-55.1C287.48,566.64,287.09,566.94,287.32,568Z"/><path class="cls-9" d="M71.17,193.5c-2.45-2.6-5.1-3.2-7.67-3.64-14.22-2.45-28.43-1.65-42.61.51-1.95.3-4.6.44-4.91,3s2.32,3.36,4.07,4.32c10,5.48,20.76,4.24,31.35,3.22A39.1,39.1,0,0,0,71.17,193.5Z"/><path class="cls-9" d="M89.9,100.34l13.68,42.9c3.75-11,7.06-20.67,10.39-30.35.72-2.08-.83-2.23-1.9-2.71C105,107,97.93,103.9,89.9,100.34Z"/><path class="cls-3" d="M213.06,148.61a17.71,17.71,0,0,0-4.7.47c-11.4,2.78-22.73,1.77-34.09-1-9.46-2.33-19-4.38-28.35-7.07a27.4,27.4,0,0,1-16.13-13.18c-3.86-6.85-7.93-13.56-11.9-20.34-1.16.19-2.54.23-1.18,2.08,1.68-.78,1.6.76,2,1.74,2.17,6,4.7,11.9,6.42,18,1.84,6.58,6,10,11.5,12.39,11.63,4.93,23.89,6.82,36.11,8.92,2.16.38,4.38.49,6.49,1.07,11.53,3.13,29.33,1.77,40.82-.17,7.29-1.23,11.66-.24,19,1,.43-.33-2.51-1.89-2.08-2.22-7-1.81-14.23-1.84-21.41-1.71C214.69,148.63,213.88,148.62,213.06,148.61Z"/><path class="cls-10" d="M113.71,120.66c-3,8.43-6.54,16.69-8.73,25.36-1.73,6.85,7.87,15.9,14.59,14.78,1.4-.23,1.32-1,1.15-2.09q-3-18.94-6-37.89Z"/><path class="cls-12" d="M75.47,34.69c-1,7-5.34,4.78-10.23,4.35C76.3,46.44,75,59.41,80.68,70c0-3.48.07-6,0-8.56q-.44-13.77-1-27.53c-.18-4.32-3.67-6.66-7.44-5.12a18.64,18.64,0,0,0-7.6,5.83C68.12,36.81,71.64,35.17,75.47,34.69Z"/><path class="cls-13" d="M125,170.45q2.25,16.58,4.49,33.16c.34,2.52.69,5,1.09,7.54,1.31,8.07,1.32,8.06,10,9.4l-13.85-50.44Z"/><path class="cls-14" d="M65.06,16.92l-1.24-4.33a.34.34,0,0,0-.35-.25c-4.18.55-3.8,3.55-3.34,7.17a.32.32,0,0,1-.57.25l-1.64-2.48a.33.33,0,0,0-.45-.12c-2.9,2-3.48,4.55-1.83,7.88a45.48,45.48,0,0,1,2.22,5.68c1.09,3.24,2.44,4,5.44,1.9C68.08,29.35,73.38,27.1,70,18.93c-1.08-2.64-.49-6.08-.57-9.28a.35.35,0,0,0-.36-.34c-5.1.41-2.92,4.38-3.42,7.57A.31.31,0,0,1,65.06,16.92Z"/><path class="cls-14" d="M84.49,30.38c.32-8.87-.63-16.75-7.83-21.95-1-.7-1.65-2.4-3.11-1.56A4.29,4.29,0,0,0,71.37,11c.15,3.22.12,6.45.31,9.66.33,5.58,2.1,7,7.53,5.79,1.34-.3,1.35.46,1.83,1.08a23.46,23.46,0,0,0,1.86,2.2C83.21,30.06,83.73,30.1,84.49,30.38Z"/><path class="cls-15" d="M46.14,89.32c1.12.22,1.36,1.16,1.64,2.18q13.15,47.41,26.33,94.85a15.42,15.42,0,0,1,.23,3c2,.8.58-1.9,1.72-2-9-33.59-18.33-68-28.12-101.33C47.49,87,45.32,87.19,46.14,89.32Z"/><path class="cls-14" d="M460.41,491.73c-.42-5.24-.39-9.86-5.3-12.11-1.78-.81-2.48-.65-3.07,1.19-1,3-1.83,6.11-3,9.05-1.61,4.11-.74,6.26,3.43,7.59C457.68,499.12,460.65,497,460.41,491.73Z"/><path d="M29.25,128.06l.93,1.17,9.27-33c.06-.23,1.8-3.88,1.89-4.1l2-7.12a5.2,5.2,0,0,0-.07-4.13h0L27,130.38a5.22,5.22,0,0,0,.12,3.53l.08.21"/><path class="cls-16" d="M442.91,528.72c-2,5.27-2.78,10.85-3.86,16.36-.26,1,.13,1.42,1.07,1.25q1.86-8.18,3.73-16.36Z"/><path class="cls-17" d="M276.25,287.61l-12.18,8.2.64,1.15A27.49,27.49,0,0,0,276.25,287.61Z"/><path class="cls-18" d="M314,814.33c-.73,1.61.49,3.61-.87,5.1-.3,3.63,1.13,6.82,2.11,10.16A49.72,49.72,0,0,0,314,814.33Z"/><path class="cls-17" d="M366.72,271.22c1.21.25.76,1.49,1.14,2.22,1.52-2.77,1.87-5.84,2.34-10A14.16,14.16,0,0,0,366.72,271.22Z"/><path class="cls-17" d="M293.37,276.51l-1.19-1.24c-2.75,1.46-4.81,3.74-6.91,6l.71,1Z"/><path d="M345,61.48c-1.58-2.93-7.73-7.62-10.45-9.13l-.9,1,7.47,6.14C341.46,59.29,345.25,61.82,345,61.48Z"/><path class="cls-19" d="M346.91,823.63a17.77,17.77,0,0,0,3.63,7.51,14.52,14.52,0,0,0-2.46-8.71C347.37,822.47,347.24,823.16,346.91,823.63Z"/><path class="cls-20" d="M346.91,823.63l1.17-1.2c-.82-2.47-1.37-5.07-2.84-7.24l-1.1,1.26Z"/><path class="cls-21" d="M267.65,400.15a8.85,8.85,0,0,0-3.67-5c.62,2.54,1.25,4.5,2.73,6Z"/><path class="cls-22" d="M350.89,551.23l-1.22,1.36a10.73,10.73,0,0,0,4.62,4.43A14.9,14.9,0,0,0,350.89,551.23Z"/><path class="cls-8" d="M262.24,126.84c1.18-7.79,3.85-14.68,5.9-22.79-9.62,6.82-18.36,13.07-25.85,21.08-5.31,5.67-6.15,17.26-2.16,24.18,1,1.72,2.22,1.52,3.64,1.23q9.49-1.87,19-3.72a7.82,7.82,0,0,0,4-2.52,247.28,247.28,0,0,0,16.88-19.2,6.88,6.88,0,0,0,1.74-4.56c-.07-8.15,0-16.31,0-24.39-1.86,1.85-2.6,5.1-3,7.89C280.42,116.54,271.56,121.47,262.24,126.84Z"/><path class="cls-10" d="M280.88,75.81c-1.66-4.08.46-8.66-1.35-13.24C274.47,70,269.34,75.28,264.85,83c.07,4.9-1.36,9.76.62,14.88C271.64,91.58,279,88,281,79.55A19.31,19.31,0,0,0,280.88,75.81Z"/><path class="cls-23" d="M348.86,44.86c.23-1.07.33-1.53.42-2,2.26-12.67-3.38-20.37-12.19-28.28C325.63,4.3,313,2.17,299.77,4.66c-10,1.9-17.57,9.72-21,20.67-1.62,5.1-2.24,10.56-3.58,17.19,2.26-2.39,3.73-3.71,4-6.18C281.75,15.4,310.61.66,329.39,15.45A75,75,0,0,1,345,32.33,10.31,10.31,0,0,1,346.63,38C346.75,40.21,346.08,42.87,348.86,44.86Z"/><path class="cls-10" d="M338.29,35.8l3.61,1.57c-3.72-13.86-15.51-23.77-29.1-24.52-10.71-.6-22.93,7.79-27.37,19.33l5.79-3.47c4.38-.94,8.09-4.2,12.71-4.31a29.44,29.44,0,0,1,12.15.24c8.47,1.39,15.69,5.71,22.36,11.3Z"/><path d="M303.54,23.69a26.41,26.41,0,0,0-12.32,5l.89.89a66.23,66.23,0,0,1,12.48-4.82C304.49,24.14,303.89,24.06,303.54,23.69Z"/><path class="cls-9" d="M475,449.17c2.72-7.53,4.58-14.31,5-21.48.15-2.71.16-5.49-1.24-7.89-1.62-2.74-3.84-4-6.77-2.31-3.35,1.93-8.5,15.65-6.77,19.14,1.46,2.93,3.85,5.31,5.87,7.9C472.16,445.93,473.35,447.25,475,449.17Z"/><path class="cls-24" d="M287.32,568l1.05-1a8.63,8.63,0,0,0-3.51-5A11.16,11.16,0,0,0,287.32,568Z"/><path d="M303,69.27c3.05-.26,5.53-.59,8-.63,2.23,0,4.46.23,6.68-.21C312.88,65.79,308.12,65.38,303,69.27Z"/><path class="cls-25" d="M407.5,677.73q-12.48,52.88-25,105.74l1.17.33Q396.42,731,409.13,678.14Z"/><path class="cls-26" d="M428.74,589.22q-6.53,27.28-13,54.59c-2.32,9.8-4.51,19.64-6.76,29.45l1.15.32Q420,632,429.82,590.33C429.46,590,429.39,589.25,428.74,589.22Z"/><path class="cls-27" d="M428.74,589.22l1.08,1.11q5.15-22,10.3-44l-1.07-1.25Q433.89,567.15,428.74,589.22Z"/><path class="cls-28" d="M325.21,39c-7.4-8.66-16.95-10.46-24.61-3.93,8.91-3.4,16.74-1.61,23.57,5C325.2,40.46,325.42,40,325.21,39Z"/><path d="M338.44,35.94C332.52,29,325,25.55,316.6,23.85c-.85.71-2.17-.25-2.88,1C322.75,26.47,330.66,31,338.44,35.94Z"/><path d="M287.63,45.38c4.24.7,7.27-.84,9.55-4.15Z"/><path class="cls-29" d="M313.72,24.81c.66-.22,2.35.06,3-.16.31-.1-.43-.7-.12-.8a34.16,34.16,0,0,0-13.06-.16l1,1.09Z"/><path d="M325.21,39l-1,1.1a10.06,10.06,0,0,0,8.06,3.15Z"/><path class="cls-3" d="M342.18,39h-.94l-9.43-7.16,5.33,2.71S343.13,36.93,342.18,39Z"/><path class="cls-12" d="M110.65,94.9S89,86.55,87,81.55s-4-46-4-46l4,2,21.56,50.51Z"/><path d="M339.3,40.92s.94,8.19,4.71,14.32l4.72,7.66-4.59-4.47-.24-.24-1.2-1.3a6.5,6.5,0,0,1-1-1.37l-3-5.67a6.39,6.39,0,0,1-.58-1.56l.29-2c0-.15-.07-.3-.11-.45L338.1,45c-.18-.6-1.14-2.22-.92-2.77"/><path d="M355.33,88l-8.21-19,1.68-.65,4.65,10.48,3.64,9.44s2.12,3.84,2.07,3.85h-1.94Z"/></g></g></g></svg>