<svg xmlns="http://www.w3.org/2000/svg" viewBox="0 0 319.87 256.01"><defs><style>.cls-1{fill:#fff;}</style></defs><title>Recurso 1</title><g id="Capa_2" data-name="Capa 2"><g id="Capa_1-2" data-name="Capa 1"><path class="cls-1" d="M159.86,0Q223,0,286.23,0c16.62,0,29.45,9.78,32.9,25.09a37.9,37.9,0,0,1,.71,8.18q0,94.7,0,189.37c0,19.64-13.86,33.34-33.59,33.34H33.53C14,256,.06,242.32,0,222.9Q0,128,0,33.16C.05,13.75,13.9.06,33.49,0Q96.67-.06,159.86,0Zm128,90.12c-1.7.78-2.94,1.29-4.14,1.89C246,110.88,208.2,129.64,170.56,148.69c-7.38,3.74-13.91,3.67-21.29-.07C111.64,129.57,73.86,110.82,36.12,92c-1.25-.62-2.56-1.13-3.93-1.72V223.64H287.86Zm.16-58H31.87c0,6.23.15,12.21-.07,18.18-.11,2.76.79,4.21,3.28,5.44q61,30.34,121.88,60.92a6,6,0,0,0,6.19-.11c12.9-6.56,25.87-13,38.82-19.47q41.35-20.67,82.68-41.41C286,55,287.8,53.29,287.87,52,288.2,45.5,288,39,288,32.15Z"/></g></g></svg>