<svg xmlns="http://www.w3.org/2000/svg" viewBox="0 0 203.94 274.14"><defs><style>.cls-1{fill:#fff;}</style></defs><title>Recurso 2</title><g id="Capa_2" data-name="Capa 2"><g id="Capa_1-2" data-name="Capa 1"><path class="cls-1" d="M156.16,274.14c-16.61-.27-31.32-6.15-45.33-14.68-12.59-7.66-23-17.7-33.35-28-11.85-11.82-21.13-25.57-30.64-39.2-12.62-18.12-22.37-37.73-31.42-57.79a171.56,171.56,0,0,1-15-56.67c-1.32-16,0-31.62,7.13-46.37A35.38,35.38,0,0,1,21.84,15.58c7-4.1,14-8.37,21-12.51A31.57,31.57,0,0,1,47.59.75c5-1.93,10.09-.09,13.1,4.9,4,6.66,7.85,13.43,11.85,20.1,6.6,11,13.29,22,19.88,33,4.41,7.36,3,12.68-4.46,17-7.64,4.44-15.3,8.88-23,13.14-4.75,2.62-6.7,6.38-6,11.74,1,7.75,4,14.9,7.51,21.7,5.16,10,11,19.74,16.7,29.54,4.66,8,9.48,16,14.17,24a67.69,67.69,0,0,0,15.84,18.33c5.71,4.68,9.76,4.94,16.15,1.22,7.57-4.4,15.19-8.7,22.72-13.16,7.76-4.59,13.3-2.16,17.43,4.64,9.42,15.51,18.45,31.26,27.68,46.89,1.62,2.75,3.62,5.28,5.16,8.06,3.34,6,1.43,11.47-4.6,14.8-6.81,3.75-13.63,7.54-20.12,11.81S163.8,274.15,156.16,274.14Z"/></g></g></svg>