<svg xmlns="http://www.w3.org/2000/svg" viewBox="0 0 1058 921.55"><defs><style>.cls-1{opacity:0.2;}.cls-2,.cls-3{fill:#fff;}.cls-3{stroke:#000;stroke-miterlimit:10;stroke-width:8.21px;}.cls-4{fill:#050505;}</style></defs><title>Recurso 4</title><g id="Capa_2" data-name="Capa 2"><g id="Capa_1-2" data-name="Capa 1"><g class="cls-1"><rect id="techo" x="61.87" y="199.01" width="929.39" height="51.29"/><polygon points="47.51 180.54 35.2 155.92 529.29 0 1026.13 155.92 1013.82 182.59 47.51 180.54"/><polygon id="frente_techo_blanco" data-name="frente techo blanco" class="cls-2" points="529.29 16.41 987.15 162.08 80.33 164.13 529.29 16.41"/><polygon id="frente_techo" data-name="frente techo" class="cls-3" points="255.74 146.69 529.29 62.58 797.37 146.69 255.74 146.69"/><polygon class="cls-4" points="466.04 55.39 453.73 61.55 457.83 71.81 466.04 67.7 466.04 55.39"/><polygon class="cls-4" points="441.42 63.6 429.11 69.75 433.21 80.01 441.42 75.91 441.42 63.6"/><polygon class="cls-4" points="416.8 69.75 404.49 75.91 408.59 86.17 416.8 82.06 416.8 69.75"/><polygon class="cls-4" points="392.18 77.96 379.87 84.12 383.97 94.38 392.18 90.27 392.18 77.96"/><polygon class="cls-4" points="365.51 86.17 353.2 92.32 357.3 102.58 365.51 98.48 365.51 86.17"/><polygon class="cls-4" points="340.89 94.38 328.58 100.53 332.68 110.79 340.89 106.68 340.89 94.38"/><polygon class="cls-4" points="314.22 102.58 301.91 108.74 306.01 118.99 314.22 114.89 314.22 102.58"/><polygon class="cls-4" points="289.6 110.79 277.29 116.94 281.39 127.2 289.6 123.1 289.6 110.79"/><polygon class="cls-4" points="264.98 118.99 252.67 125.15 256.77 135.41 264.98 131.3 264.98 118.99"/><polygon class="cls-4" points="240.36 125.15 228.05 131.3 232.15 141.56 240.36 137.46 240.36 125.15"/><polygon class="cls-4" points="215.74 133.36 203.43 139.51 207.53 149.77 215.74 145.66 215.74 133.36"/><polygon class="cls-4" points="191.12 139.51 178.81 145.66 182.91 155.92 191.12 151.82 191.12 139.51"/><polygon class="cls-4" points="166.5 149.77 154.19 155.92 158.29 166.18 166.5 162.08 166.5 149.77"/><polygon class="cls-4" points="492.71 45.14 480.4 51.29 484.5 61.55 492.71 57.45 492.71 45.14"/><polygon class="cls-4" points="515.27 36.93 502.96 43.08 507.07 53.34 515.27 49.24 515.27 36.93"/><polygon class="cls-4" points="591.18 53.34 603.5 59.5 599.39 69.75 591.18 65.65 591.18 53.34"/><polygon class="cls-4" points="615.8 61.55 628.11 67.7 624.01 77.96 615.8 73.86 615.8 61.55"/><polygon class="cls-4" points="640.42 67.7 652.73 73.86 648.63 84.12 640.42 80.01 640.42 67.7"/><polygon class="cls-4" points="665.04 75.91 677.35 82.06 673.25 92.32 665.04 88.22 665.04 75.91"/><polygon class="cls-4" points="691.72 84.12 704.02 90.27 699.92 100.53 691.72 96.43 691.72 84.12"/><polygon class="cls-4" points="716.33 92.32 728.64 98.48 724.54 108.74 716.33 104.63 716.33 92.32"/><polygon class="cls-4" points="743 100.53 755.32 106.68 751.21 116.94 743 112.84 743 100.53"/><polygon class="cls-4" points="767.63 108.74 779.93 114.89 775.83 125.15 767.63 121.05 767.63 108.74"/><polygon class="cls-4" points="792.24 116.94 804.55 123.1 800.45 133.36 792.24 129.25 792.24 116.94"/><polygon class="cls-4" points="816.86 123.1 829.17 129.25 825.07 139.51 816.86 135.41 816.86 123.1"/><polygon class="cls-4" points="841.48 131.3 853.79 137.46 849.69 147.72 841.48 143.61 841.48 131.3"/><polygon class="cls-4" points="866.1 137.46 878.41 143.61 874.31 153.87 866.1 149.77 866.1 137.46"/><polygon class="cls-4" points="890.72 147.72 903.03 153.87 898.93 164.13 890.72 160.03 890.72 147.72"/><polygon class="cls-4" points="564.51 43.08 576.82 49.24 572.72 59.5 564.51 55.39 564.51 43.08"/><polygon class="cls-4" points="541.95 34.88 554.26 41.03 550.15 51.29 541.95 47.19 541.95 34.88"/><polygon class="cls-4" points="47.51 180.54 63.92 180.54 63.92 188.75 59.81 194.9 51.61 194.9 47.51 188.75 47.51 180.54"/><polygon class="cls-4" points="76.23 180.72 92.64 180.72 92.64 188.93 88.54 195.09 80.33 195.09 76.23 188.93 76.23 180.72"/><polygon class="cls-4" points="104.95 180.72 121.36 180.72 121.36 188.93 117.26 195.09 109.05 195.09 104.95 188.93 104.95 180.72"/><polygon class="cls-4" points="135.72 180.72 152.14 180.72 152.14 188.93 148.03 195.09 139.83 195.09 135.72 188.93 135.72 180.72"/><polygon class="cls-4" points="162.4 180.72 178.81 180.72 178.81 188.93 174.71 195.09 166.5 195.09 162.4 188.93 162.4 180.72"/><polygon class="cls-4" points="191.12 180.72 207.53 180.72 207.53 188.93 203.43 195.09 195.22 195.09 191.12 188.93 191.12 180.72"/><polygon class="cls-4" points="217.79 180.72 234.2 180.72 234.2 188.93 230.1 195.09 221.89 195.09 217.79 188.93 217.79 180.72"/><polygon class="cls-4" points="248.56 180.72 264.98 180.72 264.98 188.93 260.87 195.09 252.67 195.09 248.56 188.93 248.56 180.72"/><polygon class="cls-4" points="275.24 180.72 291.65 180.72 291.65 188.93 287.55 195.09 279.34 195.09 275.24 188.93 275.24 180.72"/><polygon class="cls-4" points="306.01 180.72 322.42 180.72 322.42 188.93 318.32 195.09 310.11 195.09 306.01 188.93 306.01 180.72"/><polygon class="cls-4" points="334.73 180.72 351.14 180.72 351.14 188.93 347.04 195.09 338.83 195.09 334.73 188.93 334.73 180.72"/><polygon class="cls-4" points="363.45 180.72 379.87 180.72 379.87 188.93 375.76 195.09 367.56 195.09 363.45 188.93 363.45 180.72"/><polygon class="cls-4" points="392.18 180.72 408.59 180.72 408.59 188.93 404.49 195.09 396.28 195.09 392.18 188.93 392.18 180.72"/><polygon class="cls-4" points="420.9 180.72 437.31 180.72 437.31 188.93 433.21 195.09 425 195.09 420.9 188.93 420.9 180.72"/><polygon class="cls-4" points="451.68 180.72 468.09 180.72 468.09 188.93 463.98 195.09 455.78 195.09 451.68 188.93 451.68 180.72"/><polygon class="cls-4" points="478.35 180.72 494.76 180.72 494.76 188.93 490.65 195.09 482.45 195.09 478.35 188.93 478.35 180.72"/><polygon class="cls-4" points="507.07 180.72 523.48 180.72 523.48 188.93 519.38 195.09 511.17 195.09 507.07 188.93 507.07 180.72"/><polygon class="cls-4" points="533.74 180.72 550.15 180.72 550.15 188.93 546.05 195.09 537.84 195.09 533.74 188.93 533.74 180.72"/><polygon class="cls-4" points="564.51 180.72 580.93 180.72 580.93 188.93 576.82 195.09 568.62 195.09 564.51 188.93 564.51 180.72"/><polygon class="cls-4" points="591.18 180.72 607.6 180.72 607.6 188.93 603.5 195.09 595.29 195.09 591.18 188.93 591.18 180.72"/><polygon class="cls-4" points="621.96 180.72 638.37 180.72 638.37 188.93 634.27 195.09 626.06 195.09 621.96 188.93 621.96 180.72"/><polygon class="cls-4" points="650.68 180.72 667.1 180.72 667.1 188.93 662.99 195.09 654.78 195.09 650.68 188.93 650.68 180.72"/><polygon class="cls-4" points="679.4 180.72 695.82 180.72 695.82 188.93 691.72 195.09 683.51 195.09 679.4 188.93 679.4 180.72"/><polygon class="cls-4" points="708.13 180.72 724.54 180.72 724.54 188.93 720.44 195.09 712.23 195.09 708.13 188.93 708.13 180.72"/><polygon class="cls-4" points="736.85 180.72 753.26 180.72 753.26 188.93 749.16 195.09 740.95 195.09 736.85 188.93 736.85 180.72"/><polygon class="cls-4" points="767.63 180.72 784.04 180.72 784.04 188.93 779.93 195.09 771.73 195.09 767.63 188.93 767.63 180.72"/><polygon class="cls-4" points="794.3 180.72 810.71 180.72 810.71 188.93 806.61 195.09 798.4 195.09 794.3 188.93 794.3 180.72"/><polygon class="cls-4" points="823.02 180.72 839.43 180.72 839.43 188.93 835.33 195.09 827.12 195.09 823.02 188.93 823.02 180.72"/><polygon class="cls-4" points="849.69 180.72 866.1 180.72 866.1 188.93 862 195.09 853.79 195.09 849.69 188.93 849.69 180.72"/><polygon class="cls-4" points="880.46 180.72 896.88 180.72 896.88 188.93 892.77 195.09 884.57 195.09 880.46 188.93 880.46 180.72"/><polygon class="cls-4" points="907.13 180.72 923.55 180.72 923.55 188.93 919.45 195.09 911.24 195.09 907.13 188.93 907.13 180.72"/><polygon class="cls-4" points="937.91 180.72 954.32 180.72 954.32 188.93 950.22 195.09 942.01 195.09 937.91 188.93 937.91 180.72"/><polygon class="cls-4" points="966.63 180.72 983.04 180.72 983.04 188.93 978.94 195.09 970.74 195.09 966.63 188.93 966.63 180.72"/><polygon class="cls-4" points="997.41 180.54 1013.82 180.54 1013.82 188.75 1009.72 194.9 1001.51 194.9 997.41 188.75 997.41 180.54"/><rect id="techo-2" data-name="techo" x="61.87" y="266.71" width="929.39" height="10.26"/><circle class="cls-4" cx="91.61" cy="308.98" r="5.13"/><circle class="cls-4" cx="133.14" cy="308.98" r="5.13"/><polygon class="cls-4" points="111.11 289.49 111.11 299.75 115.21 299.75 115.21 289.49 117.26 289.49 117.26 285.38 115.21 285.38 115.21 283.33 111.11 283.33 111.11 285.38 109.05 285.38 109.05 289.49 111.11 289.49"/><path class="cls-4" d="M107,314.47s5.48-23.14-18-30.45c-27-8.38-22.56,33.7-7.74,26.8,0,0,11.93-6.5,0-13,0,0,6.09,10.59-5.15,7.72-1.45-.37-2.49-4.61-2.36-6.45.31-4.56,2.81-11.87,16.51-7.08a18.32,18.32,0,0,1,9.29,7.79C102.43,304.55,100.33,299.65,107,314.47Z"/><path class="cls-4" d="M118.2,314.47s-5.48-23.14,18-30.45c27-8.38,22.56,33.7,7.73,26.8,0,0-11.92-6.5,0-13,0,0-6.08,10.59,5.16,7.72,1.45-.37,2.48-4.61,2.36-6.45-.32-4.56-2.82-11.87-16.51-7.08a18.32,18.32,0,0,0-9.29,7.79C122.73,304.55,124.83,299.65,118.2,314.47Z"/><rect class="cls-4" x="69.34" y="276.47" width="86.48" height="7.01"/><rect class="cls-4" x="80.17" y="315.42" width="63.89" height="7.01"/><path class="cls-4" d="M141.72,324v5.46l-5.46,4.67v7.79l3.12.78v3.12H112.89V324m-28.83,0v5.46l5.46,4.67v7.79l-3.12.78v3.12h26.49V324"/><rect class="cls-4" x="77.05" y="715.09" width="71.68" height="6.23"/><rect class="cls-4" x="77.05" y="725.22" width="71.68" height="6.23"/><rect class="cls-4" x="70.82" y="736.91" width="84.14" height="17.92"/><rect class="cls-4" x="87.57" y="347.37" width="7.79" height="367.73"/><rect class="cls-4" x="101.59" y="347.37" width="7.79" height="367.73"/><rect class="cls-4" x="116.4" y="347.37" width="7.79" height="367.73"/><rect class="cls-4" x="130.42" y="347.37" width="7.79" height="367.73"/><circle class="cls-4" cx="210.59" cy="308.98" r="5.13"/><circle class="cls-4" cx="252.12" cy="308.98" r="5.13"/><polygon class="cls-4" points="230.08 289.49 230.08 299.75 234.19 299.75 234.19 289.49 236.24 289.49 236.24 285.38 234.19 285.38 234.19 283.33 230.08 283.33 230.08 285.38 228.03 285.38 228.03 289.49 230.08 289.49"/><path class="cls-4" d="M225.94,314.47s5.48-23.14-18.05-30.45c-27-8.38-22.57,33.7-7.74,26.8,0,0,11.93-6.5,0-13,0,0,6.09,10.59-5.16,7.72-1.44-.37-2.48-4.61-2.35-6.45.31-4.56,2.81-11.87,16.51-7.08a18.34,18.34,0,0,1,9.28,7.79C221.41,304.55,219.31,299.65,225.94,314.47Z"/><path class="cls-4" d="M237.17,314.47s-5.48-23.14,18.05-30.45c27-8.38,22.57,33.7,7.74,26.8,0,0-11.93-6.5,0-13,0,0-6.08,10.59,5.16,7.72,1.44-.37,2.48-4.61,2.35-6.45-.31-4.56-2.81-11.87-16.51-7.08a18.34,18.34,0,0,0-9.28,7.79C241.7,304.55,243.8,299.65,237.17,314.47Z"/><rect class="cls-4" x="188.32" y="276.47" width="86.48" height="7.01"/><rect class="cls-4" x="199.15" y="315.42" width="63.89" height="7.01"/><path class="cls-4" d="M260.69,324v5.46l-5.45,4.67v7.79l3.12.78v3.12H231.87V324M203,324v5.46l5.45,4.67v7.79l-3.11.78v3.12h26.49V324"/><rect class="cls-4" x="196.03" y="715.09" width="71.68" height="6.23"/><rect class="cls-4" x="196.03" y="725.22" width="71.68" height="6.23"/><rect class="cls-4" x="189.8" y="736.91" width="84.14" height="17.92"/><rect class="cls-4" x="206.55" y="347.37" width="7.79" height="367.73"/><rect class="cls-4" x="220.57" y="347.37" width="7.79" height="367.73"/><rect class="cls-4" x="235.37" y="347.37" width="7.79" height="367.73"/><rect class="cls-4" x="249.4" y="347.37" width="7.79" height="367.73"/><circle class="cls-4" cx="329.57" cy="308.98" r="5.13"/><circle class="cls-4" cx="371.1" cy="308.98" r="5.13"/><polygon class="cls-4" points="349.06 289.49 349.06 299.75 353.16 299.75 353.16 289.49 355.21 289.49 355.21 285.38 353.16 285.38 353.16 283.33 349.06 283.33 349.06 285.38 347.01 285.38 347.01 289.49 349.06 289.49"/><path class="cls-4" d="M344.92,314.47s5.48-23.14-18.05-30.45c-27-8.38-22.57,33.7-7.74,26.8,0,0,11.93-6.5,0-13,0,0,6.08,10.59-5.16,7.72-1.45-.37-2.48-4.61-2.35-6.45.31-4.56,2.81-11.87,16.5-7.08a18.32,18.32,0,0,1,9.29,7.79C340.38,304.55,338.29,299.65,344.92,314.47Z"/><path class="cls-4" d="M356.15,314.47S350.67,291.33,374.2,284c27-8.38,22.57,33.7,7.74,26.8,0,0-11.93-6.5,0-13,0,0-6.09,10.59,5.16,7.72,1.44-.37,2.48-4.61,2.35-6.45-.31-4.56-2.81-11.87-16.51-7.08a18.4,18.4,0,0,0-9.29,7.79C360.68,304.55,362.78,299.65,356.15,314.47Z"/><rect class="cls-4" x="307.29" y="276.47" width="86.48" height="7.01"/><rect class="cls-4" x="318.12" y="315.42" width="63.89" height="7.01"/><path class="cls-4" d="M379.67,324v5.46l-5.45,4.67v7.79l3.11.78v3.12H350.85V324M322,324v5.46l5.45,4.67v7.79l-3.11.78v3.12h26.49V324"/><rect class="cls-4" x="315.01" y="715.09" width="71.68" height="6.23"/><rect class="cls-4" x="315.01" y="725.22" width="71.68" height="6.23"/><rect class="cls-4" x="308.77" y="736.91" width="84.14" height="17.92"/><rect class="cls-4" x="325.52" y="347.37" width="7.79" height="367.73"/><rect class="cls-4" x="339.55" y="347.37" width="7.79" height="367.73"/><rect class="cls-4" x="354.35" y="347.37" width="7.79" height="367.73"/><rect class="cls-4" x="368.37" y="347.37" width="7.79" height="367.73"/><circle class="cls-4" cx="448.55" cy="308.98" r="5.13"/><circle class="cls-4" cx="490.07" cy="308.98" r="5.13"/><polygon class="cls-4" points="468.04 289.49 468.04 299.75 472.14 299.75 472.14 289.49 474.19 289.49 474.19 285.38 472.14 285.38 472.14 283.33 468.04 283.33 468.04 285.38 465.99 285.38 465.99 289.49 468.04 289.49"/><path class="cls-4" d="M463.89,314.47s5.48-23.14-18.05-30.45c-27-8.38-22.56,33.7-7.73,26.8,0,0,11.92-6.5,0-13,0,0,6.08,10.59-5.16,7.72-1.45-.37-2.48-4.61-2.36-6.45.32-4.56,2.82-11.87,16.51-7.08a18.32,18.32,0,0,1,9.29,7.79C459.36,304.55,457.26,299.65,463.89,314.47Z"/><path class="cls-4" d="M475.13,314.47s-5.48-23.14,18.05-30.45c27-8.38,22.56,33.7,7.74,26.8,0,0-11.93-6.5,0-13,0,0-6.09,10.59,5.15,7.72,1.45-.37,2.48-4.61,2.36-6.45-.31-4.56-2.81-11.87-16.51-7.08a18.32,18.32,0,0,0-9.29,7.79C479.66,304.55,481.76,299.65,475.13,314.47Z"/><rect class="cls-4" x="426.27" y="276.47" width="86.48" height="7.01"/><rect class="cls-4" x="437.1" y="315.42" width="63.89" height="7.01"/><path class="cls-4" d="M498.65,324v5.46l-5.45,4.67v7.79l3.11.78v3.12H469.82V324M441,324v5.46l5.45,4.67v7.79l-3.12.78v3.12h26.49V324"/><rect class="cls-4" x="433.98" y="715.09" width="71.68" height="6.23"/><rect class="cls-4" x="433.98" y="725.22" width="71.68" height="6.23"/><rect class="cls-4" x="427.75" y="736.91" width="84.14" height="17.92"/><rect class="cls-4" x="444.5" y="347.37" width="7.79" height="367.73"/><rect class="cls-4" x="458.53" y="347.37" width="7.79" height="367.73"/><rect class="cls-4" x="473.33" y="347.37" width="7.79" height="367.73"/><rect class="cls-4" x="487.35" y="347.37" width="7.79" height="367.73"/><circle class="cls-4" cx="567.53" cy="308.98" r="5.13"/><circle class="cls-4" cx="609.05" cy="308.98" r="5.13"/><polygon class="cls-4" points="587.02 289.49 587.02 299.75 591.12 299.75 591.12 289.49 593.17 289.49 593.17 285.38 591.12 285.38 591.12 283.33 587.02 283.33 587.02 285.38 584.96 285.38 584.96 289.49 587.02 289.49"/><path class="cls-4" d="M582.87,314.47s5.48-23.14-18-30.45c-27-8.38-22.56,33.7-7.74,26.8,0,0,11.93-6.5,0-13,0,0,6.09,10.59-5.15,7.72-1.45-.37-2.48-4.61-2.36-6.45.31-4.56,2.81-11.87,16.51-7.08a18.32,18.32,0,0,1,9.29,7.79C578.34,304.55,576.24,299.65,582.87,314.47Z"/><path class="cls-4" d="M594.11,314.47s-5.48-23.14,18-30.45c27-8.38,22.56,33.7,7.73,26.8,0,0-11.92-6.5,0-13,0,0-6.08,10.59,5.16,7.72,1.45-.37,2.48-4.61,2.36-6.45-.32-4.56-2.82-11.87-16.51-7.08a18.32,18.32,0,0,0-9.29,7.79C598.64,304.55,600.74,299.65,594.11,314.47Z"/><rect class="cls-4" x="545.25" y="276.47" width="86.48" height="7.01"/><rect class="cls-4" x="556.08" y="315.42" width="63.89" height="7.01"/><path class="cls-4" d="M617.63,324v5.46l-5.46,4.67v7.79l3.12.78v3.12H588.8V324M560,324v5.46l5.46,4.67v7.79l-3.12.78v3.12H588.8V324"/><rect class="cls-4" x="552.96" y="715.09" width="71.68" height="6.23"/><rect class="cls-4" x="552.96" y="725.22" width="71.68" height="6.23"/><rect class="cls-4" x="546.73" y="736.91" width="84.14" height="17.92"/><rect class="cls-4" x="563.48" y="347.37" width="7.79" height="367.73"/><rect class="cls-4" x="577.5" y="347.37" width="7.79" height="367.73"/><rect class="cls-4" x="592.31" y="347.37" width="7.79" height="367.73"/><rect class="cls-4" x="606.33" y="347.37" width="7.79" height="367.73"/><circle class="cls-4" cx="686.5" cy="308.98" r="5.13"/><circle class="cls-4" cx="728.03" cy="308.98" r="5.13"/><polygon class="cls-4" points="705.99 289.49 705.99 299.75 710.1 299.75 710.1 289.49 712.15 289.49 712.15 285.38 710.1 285.38 710.1 283.33 705.99 283.33 705.99 285.38 703.94 285.38 703.94 289.49 705.99 289.49"/><path class="cls-4" d="M701.85,314.47s5.48-23.14-18.05-30.45c-27-8.38-22.57,33.7-7.74,26.8,0,0,11.93-6.5,0-13,0,0,6.09,10.59-5.16,7.72-1.44-.37-2.48-4.61-2.35-6.45.31-4.56,2.81-11.87,16.51-7.08a18.4,18.4,0,0,1,9.29,7.79C697.32,304.55,695.22,299.65,701.85,314.47Z"/><path class="cls-4" d="M713.08,314.47s-5.48-23.14,18-30.45c27-8.38,22.57,33.7,7.74,26.8,0,0-11.93-6.5,0-13,0,0-6.08,10.59,5.16,7.72,1.45-.37,2.48-4.61,2.35-6.45-.31-4.56-2.81-11.87-16.5-7.08a18.32,18.32,0,0,0-9.29,7.79C717.62,304.55,719.71,299.65,713.08,314.47Z"/><rect class="cls-4" x="664.23" y="276.47" width="86.48" height="7.01"/><rect class="cls-4" x="675.06" y="315.42" width="63.89" height="7.01"/><path class="cls-4" d="M736.6,324v5.46l-5.45,4.67v7.79l3.12.78v3.12H707.78V324M679,324v5.46l5.46,4.67v7.79l-3.12.78v3.12h26.49V324"/><rect class="cls-4" x="671.94" y="715.09" width="71.68" height="6.23"/><rect class="cls-4" x="671.94" y="725.22" width="71.68" height="6.23"/><rect class="cls-4" x="665.71" y="736.91" width="84.14" height="17.92"/><rect class="cls-4" x="682.46" y="347.37" width="7.79" height="367.73"/><rect class="cls-4" x="696.48" y="347.37" width="7.79" height="367.73"/><rect class="cls-4" x="711.28" y="347.37" width="7.79" height="367.73"/><rect class="cls-4" x="725.31" y="347.37" width="7.79" height="367.73"/><circle class="cls-4" cx="805.48" cy="308.98" r="5.13"/><circle class="cls-4" cx="847.01" cy="308.98" r="5.13"/><polygon class="cls-4" points="824.97 289.49 824.97 299.75 829.07 299.75 829.07 289.49 831.13 289.49 831.13 285.38 829.07 285.38 829.07 283.33 824.97 283.33 824.97 285.38 822.92 285.38 822.92 289.49 824.97 289.49"/><path class="cls-4" d="M820.83,314.47s5.48-23.14-18.05-30.45c-27-8.38-22.57,33.7-7.74,26.8,0,0,11.93-6.5,0-13,0,0,6.08,10.59-5.16,7.72-1.44-.37-2.48-4.61-2.35-6.45.31-4.56,2.81-11.87,16.51-7.08a18.34,18.34,0,0,1,9.28,7.79C816.3,304.55,814.2,299.65,820.83,314.47Z"/><path class="cls-4" d="M832.06,314.47s-5.48-23.14,18.05-30.45c27-8.38,22.57,33.7,7.74,26.8,0,0-11.93-6.5,0-13,0,0-6.09,10.59,5.16,7.72,1.44-.37,2.48-4.61,2.35-6.45-.31-4.56-2.81-11.87-16.51-7.08a18.34,18.34,0,0,0-9.28,7.79C836.59,304.55,838.69,299.65,832.06,314.47Z"/><rect class="cls-4" x="783.2" y="276.47" width="86.48" height="7.01"/><rect class="cls-4" x="794.03" y="315.42" width="63.89" height="7.01"/><path class="cls-4" d="M855.58,324v5.46l-5.45,4.67v7.79l3.11.78v3.12H826.76V324m-28.83,0v5.46l5.45,4.67v7.79l-3.11.78v3.12h26.49V324"/><rect class="cls-4" x="790.92" y="715.09" width="71.68" height="6.23"/><rect class="cls-4" x="790.92" y="725.22" width="71.68" height="6.23"/><rect class="cls-4" x="784.69" y="736.91" width="84.14" height="17.92"/><rect class="cls-4" x="801.44" y="347.37" width="7.79" height="367.73"/><rect class="cls-4" x="815.46" y="347.37" width="7.79" height="367.73"/><rect class="cls-4" x="830.26" y="347.37" width="7.79" height="367.73"/><rect class="cls-4" x="844.29" y="347.37" width="7.79" height="367.73"/><circle class="cls-4" cx="924.46" cy="308.98" r="5.13"/><circle class="cls-4" cx="965.98" cy="308.98" r="5.13"/><polygon class="cls-4" points="943.95 289.49 943.95 299.75 948.05 299.75 948.05 289.49 950.1 289.49 950.1 285.38 948.05 285.38 948.05 283.33 943.95 283.33 943.95 285.38 941.9 285.38 941.9 289.49 943.95 289.49"/><path class="cls-4" d="M939.8,314.47s5.48-23.14-18-30.45c-27-8.38-22.56,33.7-7.73,26.8,0,0,11.92-6.5,0-13,0,0,6.08,10.59-5.16,7.72-1.45-.37-2.48-4.61-2.36-6.45.32-4.56,2.82-11.87,16.51-7.08a18.32,18.32,0,0,1,9.29,7.79C935.27,304.55,933.17,299.65,939.8,314.47Z"/><path class="cls-4" d="M951,314.47s-5.48-23.14,18.05-30.45c27-8.38,22.56,33.7,7.74,26.8,0,0-11.93-6.5,0-13,0,0-6.09,10.59,5.15,7.72,1.45-.37,2.49-4.61,2.36-6.45-.31-4.56-2.81-11.87-16.51-7.08a18.32,18.32,0,0,0-9.29,7.79C955.57,304.55,957.67,299.65,951,314.47Z"/><rect class="cls-4" x="902.18" y="276.47" width="86.48" height="7.01"/><rect class="cls-4" x="913.01" y="315.42" width="63.89" height="7.01"/><path class="cls-4" d="M974.56,324v5.46l-5.45,4.67v7.79l3.11.78v3.12H945.73V324m-28.82,0v5.46l5.45,4.67v7.79l-3.12.78v3.12h26.49V324"/><rect class="cls-4" x="909.9" y="715.09" width="71.68" height="6.23"/><rect class="cls-4" x="909.9" y="725.22" width="71.68" height="6.23"/><rect class="cls-4" x="903.66" y="736.91" width="84.14" height="17.92"/><rect class="cls-4" x="920.41" y="347.37" width="7.79" height="367.73"/><rect class="cls-4" x="934.44" y="347.37" width="7.79" height="367.73"/><rect class="cls-4" x="949.24" y="347.37" width="7.79" height="367.73"/><rect class="cls-4" x="963.26" y="347.37" width="7.79" height="367.73"/><rect class="cls-4" x="59.99" y="758.72" width="942.7" height="15.58"/><rect class="cls-4" x="45.97" y="789.11" width="966.07" height="15.58"/><rect class="cls-4" x="34.28" y="817.93" width="987.1" height="15.58"/><rect class="cls-4" x="24.93" y="845.98" width="1009.7" height="15.58"/><rect class="cls-4" x="11.69" y="876.37" width="1033.85" height="15.58"/><rect class="cls-4" y="905.97" width="1058" height="15.58"/></g></g></g></svg>