<svg xmlns="http://www.w3.org/2000/svg" viewBox="0 0 72.8 67.34"><defs><style>.cls-1{fill:#fff;}</style></defs><title>Recurso 15</title><g id="Capa_2" data-name="Capa 2"><g id="Capa_1-2" data-name="Capa 1"><g id="totally_white_icons" data-name="totally white icons"><path id="phone_WHITE" class="cls-1" d="M13.1.16C16.34-.6,17.88,1.46,19,4.29c1.51,3.8,3.08,7.59,4.76,11.32a5.2,5.2,0,0,1-.62,5.75c-1.16,1.5-2.33,3-3.62,4.38a2.83,2.83,0,0,0-.36,3.84A49.14,49.14,0,0,0,43.52,50.44a3.16,3.16,0,0,0,4.15-1.07c1.59-2.06,3.32-4,4.88-6.1,1.17-1.56,2.52-2,4.31-1.2l14.3,6.76a2.72,2.72,0,0,1,1.64,2.84c-.16,7.88-3.7,12.3-13.28,15.15-4.25,1.26-8.23,0-12.29-1.1-20-5.44-33.51-18.81-43.65-36.13a23.42,23.42,0,0,1-3-17.53A20.09,20.09,0,0,1,6.89,1.74,7.07,7.07,0,0,1,13.1.16Z"/></g></g></g></svg>