<svg xmlns="http://www.w3.org/2000/svg" viewBox="0 0 96.04 95.99"><defs><style>.cls-1{fill:#fff;}</style></defs><title>Recurso 14</title><g id="Capa_2" data-name="Capa 2"><g id="Capa_1-2" data-name="Capa 1"><g id="totally_white_icons" data-name="totally white icons"><g id="wsp_WHITE"><path class="cls-1" d="M94.94,37.07A45.27,45.27,0,0,0,76.53,9C64.92.73,52-1.9,38.12,1.35,22.88,4.92,11.81,14.06,5.6,28.4-.48,42.46.42,56.46,7.9,69.93a2.31,2.31,0,0,1,.25,2.12c-.79,2.14-1.5,4.31-2.23,6.47L0,96c.7-.18,1.08-.25,1.45-.37,7.6-2.41,15.21-4.79,22.78-7.27a4.31,4.31,0,0,1,3.56.29,46,46,0,0,0,35.44,2.69A45.79,45.79,0,0,0,91.56,66.55,44.81,44.81,0,0,0,94.94,37.07ZM71,79.36c-13.78,8.93-28.16,9.17-42.55,1.12a3.29,3.29,0,0,0-3-.35c-4.46,1.5-9,2.87-13.66,4.36,1.52-4.52,2.94-8.84,4.46-13.12a2.71,2.71,0,0,0-.36-2.76A39.33,39.33,0,0,1,48.82,7.52,39.3,39.3,0,0,1,85.91,33C92.37,50.27,86.39,69.39,71,79.36Z"/><path class="cls-1" d="M34.32,25.55c2.08-.49,3.08.84,3.8,2.66,1,2.45,2,4.89,3.07,7.3a3.35,3.35,0,0,1-.4,3.71c-.75,1-1.5,1.93-2.33,2.82a1.83,1.83,0,0,0-.23,2.48A31.68,31.68,0,0,0,53.93,58a2,2,0,0,0,2.67-.7c1-1.32,2.14-2.59,3.15-3.93a2,2,0,0,1,2.78-.77l9.22,4.36a1.76,1.76,0,0,1,1.06,1.83c-.11,5.08-2.39,7.93-8.57,9.77-2.73.81-5.3,0-7.92-.71-12.91-3.51-21.61-12.13-28.14-23.3a15.09,15.09,0,0,1-1.93-11.3,12.92,12.92,0,0,1,4.06-6.65A4.57,4.57,0,0,1,34.32,25.55Z"/></g></g></g></g></svg>