<svg xmlns="http://www.w3.org/2000/svg" viewBox="0 0 162.49 358.5"><defs><style>.cls-1{fill:#fff;}</style></defs><title>Recurso 44</title><g id="Capa_2" data-name="Capa 2"><g id="webpage-logos"><g id="_3.0" data-name="3.0"><g id="white-logo"><g id="main-form"><path id="C" class="cls-1" d="M132.34,3.61c-12.9-21.61-64.5,60.9-64.5,60.9S-7,182.08.53,223.81c5.69,31.68,40.56,33.63,57,32.73L60,248c-14.45-.86-27.41-8.93-31.22-33-9.8-62.07,74.9-188,74.9-188S116.73,9,124.48,8.21c17.66-1.7-8.11,80.86-8.11,80.86a7.83,7.83,0,0,0,8.83-5.44C130.4,66.54,142.72,21,132.34,3.61Z"/><path id="P-new" class="cls-1" d="M57.29,256.53,28.93,354.16l0,.1c-1.16,4.29,5.33,6.06,6.64,1.81l30.24-98.36a3.42,3.42,0,0,1,2.78-2.39c15.55-2.26,74.24-15,89-67.67,12.58-44.83-1.9-64.62-10.59-72-3.53-3-11.25-3.33-15.84-2.59-12.39,2-36.09,13.08-53.77,74.36L59.77,248m63.5-29.92c-6.91,8.63-15.84,16.66-26,21a127.26,127.26,0,0,1-22.81,6.68c-2.56.49-4.71-.91-3.94-3.4l20.86-67.19a128.6,128.6,0,0,1,6.49-16.73c4.84-10.25,11.44-22.61,19.4-28.79,6.49-5,14-7,21.24,7.9C152.11,165.51,136.8,201.15,123.27,218.06Z"/></g></g></g></g></g></svg>