<svg xmlns="http://www.w3.org/2000/svg" viewBox="0 0 330 179.95"><defs><style>.cls-1,.cls-2{fill:#fff;}.cls-2{stroke:#fff;stroke-miterlimit:10;stroke-width:2.98px;}</style></defs><title>Recurso 52</title><g id="Capa_2" data-name="Capa 2"><g id="webpage-logos"><g id="CursiveBlock-logo"><g id="_OG_CursiveFooter-WHITE" data-name="(OG) CursiveFooter-WHITE"><path class="cls-1" d="M90.75,107.39a38.33,38.33,0,0,0-6.33,6,23.06,23.06,0,0,1,4.83,3.86,21.06,21.06,0,0,1,3.16,4.27,17.42,17.42,0,0,1,1.72,4.29,16.56,16.56,0,0,1-5.79,17.35,19.38,19.38,0,0,1-6.52,3.3,26.54,26.54,0,0,1-7.62,1.09,39.39,39.39,0,0,1-8.67-1q-2,4.11-4.26,8.17a83.16,83.16,0,0,1-5,7.78,60,60,0,0,1-5.86,6.92,39.78,39.78,0,0,1-6.79,5.54,33.52,33.52,0,0,1-7.85,3.67,29.74,29.74,0,0,1-9,1.34,24.31,24.31,0,0,1-8.58-1.48,19.09,19.09,0,0,1-6.8-4.32,19.6,19.6,0,0,1-4.45-6.92,25.42,25.42,0,0,1-1.6-9.35,37.15,37.15,0,0,1,2.37-13.15,46.69,46.69,0,0,1,6.52-11.82,55.44,55.44,0,0,1,9.77-10,66.1,66.1,0,0,1,12.14-7.66,68.11,68.11,0,0,1,13.64-4.94A59.38,59.38,0,0,1,64,108.59a49.21,49.21,0,0,1,9.92.9,37.56,37.56,0,0,1,7.66,2.38,43.32,43.32,0,0,1,3.94-3A30.87,30.87,0,0,1,90,106.33ZM61.59,142.7c1.44-3,2.86-5.79,4.27-8.52s2.84-5.31,4.29-7.75,3-4.74,4.52-6.88a51,51,0,0,1,5.06-5.93A31.79,31.79,0,0,0,73,111.87a51.4,51.4,0,0,0-7.76-.56,46.47,46.47,0,0,0-11.11,1.34,57.85,57.85,0,0,0-10.48,3.67,62.41,62.41,0,0,0-9.61,5.52,71.6,71.6,0,0,0-8.48,6.92,70.74,70.74,0,0,0-7.08,7.82,59.83,59.83,0,0,0-5.39,8.24A44.08,44.08,0,0,0,9.68,153a27.07,27.07,0,0,0-1.2,7.69,16.54,16.54,0,0,0,1.32,6.62,16.07,16.07,0,0,0,3.63,5.33A17,17,0,0,0,19,176.21,18.75,18.75,0,0,0,26,177.5a24,24,0,0,0,10.68-2.31,30.36,30.36,0,0,0,8.77-6.58,59.61,59.61,0,0,0,7.64-10.27q3.62-6,7.36-13.38a41.61,41.61,0,0,1-9-4.85l.75-1.29q2.25,1.11,4.57,2.1T61.59,142.7Zm28.13-15.65a12.94,12.94,0,0,0-1.81-7,14.64,14.64,0,0,0-5-4.85,86.86,86.86,0,0,0-8.14,12.67q-3.87,7.21-8,16.08c.91.16,1.81.27,2.72.35s1.83.12,2.76.12A18.21,18.21,0,0,0,79,143.16a17.05,17.05,0,0,0,5.56-3.53,16.86,16.86,0,0,0,3.79-5.47A17.36,17.36,0,0,0,89.72,127.05Z"/><path class="cls-1" d="M99.89,144.13c-.41.8-1,1.85-1.71,3.16s-1.52,2.74-2.37,4.29-1.7,3.19-2.58,4.9-1.66,3.36-2.36,5A41,41,0,0,0,89.16,166a12.45,12.45,0,0,0-.66,3.6,2.35,2.35,0,0,0,.56,1.82,2.41,2.41,0,0,0,1.6.48,6.59,6.59,0,0,0,3.75-1.24A20.22,20.22,0,0,0,98,167.41a40.58,40.58,0,0,0,3.54-4.59l3.47-5.21,1.68,1.29c-.9,1.6-1.93,3.31-3.07,5.12a36.07,36.07,0,0,1-3.82,5.06,20.54,20.54,0,0,1-4.64,3.85,10.46,10.46,0,0,1-5.53,1.52,5.5,5.5,0,0,1-4.31-1.66,6.17,6.17,0,0,1-1.5-4.29A16.25,16.25,0,0,1,85.31,162,42.46,42.46,0,0,1,89,155.37,69.25,69.25,0,0,1,93.68,149q2.55-3,4.71-5.54Zm8.77-10.25a4.51,4.51,0,0,1-.47,1.92,6.74,6.74,0,0,1-1.2,1.77,6.62,6.62,0,0,1-1.61,1.3,3.59,3.59,0,0,1-1.79.51,1.41,1.41,0,0,1-1.21-.58,2.29,2.29,0,0,1-.43-1.41,7,7,0,0,1,.28-1.75,7.17,7.17,0,0,1,.85-1.92,6.32,6.32,0,0,1,1.36-1.55,2.82,2.82,0,0,1,1.83-.64,2.25,2.25,0,0,1,1.68.74A2.3,2.3,0,0,1,108.66,133.88Z"/><path class="cls-1" d="M131.77,145.24a2.7,2.7,0,0,0-1.2-2.33,6.56,6.56,0,0,0-3.77-.86,10.9,10.9,0,0,0-4.25.9,17.89,17.89,0,0,0-4.1,2.47,22.91,22.91,0,0,0-3.68,3.74,26.46,26.46,0,0,0-3,4.71,28,28,0,0,0-2,5.38,23.07,23.07,0,0,0-.72,5.7,13.18,13.18,0,0,0,.51,3.92,6.92,6.92,0,0,0,1.45,2.63,5.3,5.3,0,0,0,2.25,1.45,9.12,9.12,0,0,0,3,.44,14.54,14.54,0,0,0,6.28-1.43,26.92,26.92,0,0,0,5.79-3.71,38.8,38.8,0,0,0,5.06-5.11,62.32,62.32,0,0,0,4.1-5.53l1.74,1.29a48.12,48.12,0,0,1-5.39,7.36,35.8,35.8,0,0,1-5.86,5.28,24.14,24.14,0,0,1-6.1,3.19,18.49,18.49,0,0,1-6,1.06,14.43,14.43,0,0,1-4.48-.69,10.64,10.64,0,0,1-3.75-2.1,10,10,0,0,1-2.58-3.62,13.23,13.23,0,0,1-1-5.27,21.71,21.71,0,0,1,1-6.8,25.49,25.49,0,0,1,2.82-5.93,26.81,26.81,0,0,1,4-4.92,28.1,28.1,0,0,1,4.81-3.72,23.39,23.39,0,0,1,5.06-2.33,16.17,16.17,0,0,1,4.8-.8,9.53,9.53,0,0,1,3.75.62,6.75,6.75,0,0,1,2.3,1.5,4.79,4.79,0,0,1,1.15,1.85,5.74,5.74,0,0,1,.3,1.66,9.66,9.66,0,0,1-.32,2.35,9.88,9.88,0,0,1-.92,2.29,6,6,0,0,1-1.45,1.73,3,3,0,0,1-1.9.69,2.56,2.56,0,0,1-1.78-.67,2.17,2.17,0,0,1-.75-1.69s0-.21.07-.55a2.68,2.68,0,0,1,.44-1.08,3.46,3.46,0,0,1,1.15-1,4.26,4.26,0,0,1,2.18-.46h.56A4.37,4.37,0,0,0,131.77,145.24Z"/><path class="cls-1" d="M143.91,156.78a64.42,64.42,0,0,1,5.15-6.12,43.58,43.58,0,0,1,5.39-4.82,26.43,26.43,0,0,1,5.37-3.17,13.13,13.13,0,0,1,5.13-1.13,6.62,6.62,0,0,1,2.79.51,4.64,4.64,0,0,1,1.74,1.32,4.93,4.93,0,0,1,.89,1.77,7.67,7.67,0,0,1,.26,1.94,10.43,10.43,0,0,1-.71,3.58,35.37,35.37,0,0,1-1.76,4c-.7,1.39-1.46,2.8-2.27,4.25s-1.57,2.86-2.27,4.24a35.17,35.17,0,0,0-1.76,4,10.88,10.88,0,0,0-.7,3.67,4,4,0,0,0,.49,2,1.83,1.83,0,0,0,1.76.9,5.44,5.44,0,0,0,3.32-1.5,26.29,26.29,0,0,0,3.73-3.83c1.27-1.55,2.53-3.28,3.8-5.19s2.44-3.77,3.54-5.58l1.68,1.29a25,25,0,0,0-1.4,2.24c-.6,1-1.29,2.18-2.09,3.46s-1.69,2.59-2.67,3.94a31.12,31.12,0,0,1-3.14,3.72,17.4,17.4,0,0,1-3.49,2.77,7.24,7.24,0,0,1-3.71,1.08,11.17,11.17,0,0,1-2.43-.27,5.88,5.88,0,0,1-2.21-1,5.39,5.39,0,0,1-1.59-2,7.3,7.3,0,0,1-.61-3.2,14.74,14.74,0,0,1,.77-4.6,34.42,34.42,0,0,1,1.93-4.61c.76-1.52,1.6-3,2.5-4.43s1.75-2.78,2.51-4,1.41-2.41,1.92-3.44a6.07,6.07,0,0,0,.78-2.61,1.67,1.67,0,0,0-1.88-1.89,11.36,11.36,0,0,0-5.65,1.73,35.12,35.12,0,0,0-6,4.5,70.66,70.66,0,0,0-5.91,6.21q-2.91,3.44-5.44,6.85l-7.12,13.2-4.27-1.66q6-12.78,11.46-25.27t11.32-24.67c.6-1.26,1.29-2.63,2.09-4.11s1.66-3,2.58-4.43a48.71,48.71,0,0,1,3-4.24,30.49,30.49,0,0,1,3.29-3.6,15.77,15.77,0,0,1,3.49-2.52,7.73,7.73,0,0,1,3.63-.94,4.34,4.34,0,0,1,3.21,1.13,4.27,4.27,0,0,1,1.15,3.2,12.75,12.75,0,0,1-1.17,4.92,39,39,0,0,1-3.14,5.79,74.72,74.72,0,0,1-4.57,6.28q-2.61,3.22-5.49,6.41t-5.83,6.17q-3,3-5.67,5.51Zm27.47-49.3a5.64,5.64,0,0,0-3.87,1.59,21.41,21.41,0,0,0-3.82,5.24q-2.07,3.64-4.74,9.51t-6.51,14.4a116.27,116.27,0,0,0,9-9.58,103.66,103.66,0,0,0,6.45-8.47,47.9,47.9,0,0,0,3.86-6.67,11.67,11.67,0,0,0,1.29-4.22,1.77,1.77,0,0,0-.47-1.31A1.59,1.59,0,0,0,171.38,107.48Z"/><path class="cls-1" d="M215.06,144.13c-.4.8-1,1.84-1.71,3.14s-1.52,2.71-2.37,4.27-1.69,3.17-2.55,4.87-1.64,3.34-2.34,5a44.51,44.51,0,0,0-1.74,4.57,12.52,12.52,0,0,0-.68,3.62,2.36,2.36,0,0,0,.59,1.92,2.49,2.49,0,0,0,1.52.43,5.79,5.79,0,0,0,2.79-.78,14.93,14.93,0,0,0,2.81-2,28.08,28.08,0,0,0,2.7-2.82c.87-1,1.69-2.1,2.46-3.16s1.46-2.08,2.09-3,1.15-1.8,1.59-2.47l1.69,1.29c-.54,1-1.16,2-1.88,3.18s-1.51,2.29-2.37,3.44a39.8,39.8,0,0,1-2.78,3.35,24.09,24.09,0,0,1-3.17,2.86,15.4,15.4,0,0,1-3.49,2,9.79,9.79,0,0,1-3.75.74,4.94,4.94,0,0,1-4.13-1.66A6.75,6.75,0,0,1,199,168.5c0-.12,0-.39,0-.81a5.56,5.56,0,0,1,.12-1,39.61,39.61,0,0,1-4.47,4.8,24,24,0,0,1-4.13,3,15,15,0,0,1-7.38,2,9.7,9.7,0,0,1-3.35-.57,8.26,8.26,0,0,1-2.77-1.69,7.64,7.64,0,0,1-1.87-2.72,9.46,9.46,0,0,1-.68-3.74,18.31,18.31,0,0,1,1.19-6,27,27,0,0,1,4.24-7.32,35,35,0,0,1,5.37-5.68A32.51,32.51,0,0,1,190.8,145a23.05,23.05,0,0,1,5.14-2,18.44,18.44,0,0,1,4.36-.6,12.2,12.2,0,0,1,6.51,1.41,6,6,0,0,1,2.67,4.31c.63-.76,1.29-1.53,2-2.3l2.11-2.36Zm-14.39,17.54c.41-.65.91-1.47,1.5-2.47s1.22-2,1.88-3.09S205.34,154,206,153s1.17-1.82,1.64-2.5a11.65,11.65,0,0,0-.12-1.33,5.38,5.38,0,0,0-.63-1.87,4.44,4.44,0,0,0-1.64-1.64,6,6,0,0,0-3.14-.69,14,14,0,0,0-3.26.43,18.43,18.43,0,0,0-3.84,1.48,25.26,25.26,0,0,0-4.2,2.75,31.08,31.08,0,0,0-4.31,4.24,33.6,33.6,0,0,0-5,7.69,16.86,16.86,0,0,0-1.76,6.94,6.07,6.07,0,0,0,1.22,4.07,4.32,4.32,0,0,0,3.47,1.43,10.64,10.64,0,0,0,4.82-1.13,18.81,18.81,0,0,0,4.22-2.93,35,35,0,0,0,3.75-4Q199,163.79,200.67,161.67Z"/><path class="cls-1" d="M249.8,158.9c-.47.68-1,1.59-1.67,2.74s-1.38,2.4-2.22,3.74-1.78,2.7-2.79,4.09a26.68,26.68,0,0,1-3.33,3.74,17.49,17.49,0,0,1-3.91,2.72,9.87,9.87,0,0,1-4.5,1.06,7.82,7.82,0,0,1-2.49-.39,5.58,5.58,0,0,1-2.06-1.22,6,6,0,0,1-1.41-2.06,7.45,7.45,0,0,1-.51-2.88,13.55,13.55,0,0,1,.91-4.73,40.18,40.18,0,0,1,2.13-4.78q1.23-2.31,2.44-4.22a33,33,0,0,0,1.78-3.07,4.61,4.61,0,0,0,.56-2,1.6,1.6,0,0,0-.39-1.06,6.25,6.25,0,0,0-1-.9l-1.22-.92a4.39,4.39,0,0,1-1-1.18l-2.39,3.74c-.72,1.08-1.5,2.28-2.35,3.62s-1.65,2.66-2.43,4l-1.69-1.29,10-15.47,1.36.7c-.06.18-.16.47-.31.87a3.9,3.9,0,0,0-.21,1.3,3.12,3.12,0,0,0,.17,1,2,2,0,0,0,.68.9c1.25,1.11,2.23,2,2.95,2.56a18.84,18.84,0,0,1,1.57,1.43,2.85,2.85,0,0,1,.61.88,2.8,2.8,0,0,1,.12.9A6.3,6.3,0,0,1,237,154a14.3,14.3,0,0,1-.63,1.89c-.3.74-.71,1.61-1.22,2.61s-1.17,2.16-2,3.48c-.47.8-.93,1.61-1.38,2.42s-.86,1.64-1.22,2.47a17.26,17.26,0,0,0-.87,2.5,9.79,9.79,0,0,0-.32,2.4,3.25,3.25,0,0,0,.25,1.4,2,2,0,0,0,.68.81,2.44,2.44,0,0,0,.92.37,5.36,5.36,0,0,0,1,.09,6,6,0,0,0,3.07-.9,16.25,16.25,0,0,0,3-2.33,28.84,28.84,0,0,0,2.86-3.25q1.38-1.83,2.65-3.72c.84-1.26,1.62-2.47,2.34-3.62s1.36-2.16,1.92-3Z"/><path class="cls-1" d="M300.33,114.17l-1.69,2.45q-1.17,1.71-2.72,4.06t-3.35,5.22c-1.2,1.91-2.41,3.87-3.61,5.91s-2.37,4.08-3.51,6.16-2.15,4.07-3,6c-1.37,3-2.51,5.6-3.4,7.92s-1.59,4.39-2.11,6.21a39.24,39.24,0,0,0-1.07,4.73,22.58,22.58,0,0,0-.31,3.44,5.94,5.94,0,0,0,.82,3.64,2.71,2.71,0,0,0,2.23,1,5.71,5.71,0,0,0,2.79-.74,13.09,13.09,0,0,0,2.58-1.89,20.75,20.75,0,0,0,2.34-2.63c.73-1,1.42-2,2.06-3s1.23-1.92,1.76-2.81,1-1.65,1.41-2.26l1.68,1.29q-.51.82-1.29,2.19c-.51.91-1.1,1.9-1.75,3a36.61,36.61,0,0,1-2.25,3.25,21.39,21.39,0,0,1-2.79,3,14,14,0,0,1-3.38,2.19,9.43,9.43,0,0,1-4,.86,9.66,9.66,0,0,1-2.18-.28,6,6,0,0,1-3.86-2.89,7.76,7.76,0,0,1-1-3.11,30.36,30.36,0,0,1-6.84,5.65,12.65,12.65,0,0,1-6.28,1.92,12.31,12.31,0,0,1-3.31-.51,9.8,9.8,0,0,1-3.39-1.75,10,10,0,0,1-2.68-3.3,10.88,10.88,0,0,1-1.07-5.1,19.58,19.58,0,0,1,1.07-6.51,24.1,24.1,0,0,1,2.91-5.75,27.86,27.86,0,0,1,4.19-4.8,30,30,0,0,1,4.95-3.65,27.2,27.2,0,0,1,5.18-2.33,16.24,16.24,0,0,1,4.9-.83,12.56,12.56,0,0,1,4.78.74,10.66,10.66,0,0,1,2.62,1.48c.44-.86,1-2,1.79-3.3s1.62-2.83,2.62-4.48,2.11-3.4,3.33-5.26,2.51-3.74,3.89-5.63,2.82-3.76,4.34-5.61,3.05-3.57,4.61-5.17Zm-29.67,49.44a37.59,37.59,0,0,1,1.61-8.06,76.56,76.56,0,0,1,4.25-10.68,4.22,4.22,0,0,0-1.86-1.5,6.43,6.43,0,0,0-2.69-.53,12.72,12.72,0,0,0-4.67.92,21.06,21.06,0,0,0-4.54,2.49,25.46,25.46,0,0,0-4.1,3.72,28.13,28.13,0,0,0-3.36,4.59,24.59,24.59,0,0,0-2.25,5.1,17.93,17.93,0,0,0-.82,5.24,8.75,8.75,0,0,0,1.48,5.4,4.75,4.75,0,0,0,4,1.94,8.59,8.59,0,0,0,2.58-.46,14.57,14.57,0,0,0,3.07-1.5,26.6,26.6,0,0,0,3.49-2.68A42.64,42.64,0,0,0,270.66,163.61Z"/><path class="cls-1" d="M318,162.27a1.64,1.64,0,0,0,.38,0h.42a10.44,10.44,0,0,0,2.39-.25,6.83,6.83,0,0,0,2-.81,8.31,8.31,0,0,0,1.76-1.45,13.87,13.87,0,0,0,1.64-2.19l1.69,1.29a13.94,13.94,0,0,1-4.64,4.38,10.83,10.83,0,0,1-5.06,1.25,7,7,0,0,1-1.74-.19,30.33,30.33,0,0,1-4.31,5.66,25.47,25.47,0,0,1-4.69,3.81,18.8,18.8,0,0,1-4.73,2.14,15.86,15.86,0,0,1-4.36.67,10.14,10.14,0,0,1-3.82-.71,8.59,8.59,0,0,1-3-2.06,9.36,9.36,0,0,1-2-3.18,11.6,11.6,0,0,1-.71-4.16,15.72,15.72,0,0,1,.75-4.7,26.14,26.14,0,0,1,2-4.76,32.83,32.83,0,0,1,3-4.54,37.43,37.43,0,0,1,3.75-4.09,38.75,38.75,0,0,1,4.18-3.41,25.5,25.5,0,0,1,4.31-2.5l1.5,1.94a34.76,34.76,0,0,0-5,4.43,41.66,41.66,0,0,0-4.64,5.86,35.93,35.93,0,0,0-3.42,6.63,18.35,18.35,0,0,0-1.34,6.67,6.92,6.92,0,0,0,1.31,4.5,4.89,4.89,0,0,0,4,1.59,10.74,10.74,0,0,0,4.08-.83,18.25,18.25,0,0,0,3.93-2.26,26.48,26.48,0,0,0,3.71-3.39,48.05,48.05,0,0,0,3.37-4.18,8.32,8.32,0,0,1-2.39-2.1,12.93,12.93,0,0,1-1.73-3,17.62,17.62,0,0,1-1.06-3.63,22.52,22.52,0,0,1-.35-4,13.65,13.65,0,0,1,.52-3.84,11,11,0,0,1,1.43-3.16,7.48,7.48,0,0,1,2.13-2.14,4.77,4.77,0,0,1,2.67-.79,4.22,4.22,0,0,1,2.34.67,5.54,5.54,0,0,1,1.74,1.85,9.55,9.55,0,0,1,1.08,2.79,15.3,15.3,0,0,1,.37,3.46,23,23,0,0,1-.23,3,30.91,30.91,0,0,1-.68,3.34,32.32,32.32,0,0,1-1.08,3.33A15.15,15.15,0,0,1,318,162.27Zm-6.37-11.49a20.48,20.48,0,0,0,.23,2.9,17.21,17.21,0,0,0,.75,3,13.67,13.67,0,0,0,1.32,2.75,6.25,6.25,0,0,0,2,2,22.85,22.85,0,0,0,1.43-3.3c.39-1.12.72-2.2,1-3.25a24.48,24.48,0,0,0,.56-2.93,20,20,0,0,0,.16-2.38,12.55,12.55,0,0,0-.23-2.54,9.24,9.24,0,0,0-.63-2,3.81,3.81,0,0,0-1-1.34,2,2,0,0,0-1.29-.49,2.73,2.73,0,0,0-1.73.63,5.17,5.17,0,0,0-1.36,1.66,9.66,9.66,0,0,0-.87,2.4A13.08,13.08,0,0,0,311.58,150.78Z"/><g id="medium"><g id="lines"><g id="Left"><line class="cls-2" y1="91.6" x2="152" y2="91.6"/><line class="cls-2" y1="86.68" x2="152" y2="86.68"/></g><g id="Right"><line class="cls-2" x1="178" y1="91.6" x2="330" y2="91.6"/><line class="cls-2" x1="178" y1="86.68" x2="330" y2="86.68"/></g></g><path class="cls-1" d="M164.05,74.55a5.44,5.44,0,0,1,3.31.91A3,3,0,0,1,168.58,78a4.52,4.52,0,0,1-1.22,3.2,16.17,16.17,0,0,1-3.43,2.68A40,40,0,0,0,168.55,90a16.48,16.48,0,0,0,1.28-2.25,4.63,4.63,0,0,0,.5-1.35A.39.39,0,0,0,170,86a2.06,2.06,0,0,0-.68-.13,1.84,1.84,0,0,1-.43,0,.9.9,0,0,1-.07-.37.47.47,0,0,1,.1-.34h2.47l1,0,1.22-.06,1.23-.06c.11.06.16.19.16.39s-.06.47-.19.47a5.32,5.32,0,0,0-1.15.18,3.9,3.9,0,0,0-1,.34s-.17.25-.44.69-.67,1-1.19,1.8A21,21,0,0,1,169.43,91c.48.5.81.84,1,1s.43.42.75.69a3.94,3.94,0,0,0,.75.56,1.24,1.24,0,0,0,.56.13,1.41,1.41,0,0,0,.95-.52,2.92,2.92,0,0,0,.67-.89.8.8,0,0,1,.49.18.5.5,0,0,1,.23.37,4.19,4.19,0,0,1-.28.5,6.14,6.14,0,0,1-.54.7,3,3,0,0,1-1.07.76,3.84,3.84,0,0,1-1.51.29,3.39,3.39,0,0,1-1.72-.55,5.73,5.73,0,0,1-1.38-1.11l-.5-.56a8.59,8.59,0,0,1-5.68,2.31,6.88,6.88,0,0,1-4.43-1.32,4.79,4.79,0,0,1-.26-7A15.63,15.63,0,0,1,161.27,84c-.39-.66-.69-1.18-.89-1.59a10.45,10.45,0,0,1-.61-1.61,6.71,6.71,0,0,1-.31-2,3.94,3.94,0,0,1,1.31-3A4.59,4.59,0,0,1,164.05,74.55Zm3.06,17.27a25.09,25.09,0,0,1-2.18-2.59c-.86-1.13-1.55-2.1-2.1-2.92L162,85.08c-.75.51-1.3.91-1.66,1.18a4.59,4.59,0,0,0-1,1.28,3.58,3.58,0,0,0-.52,1.91,3.65,3.65,0,0,0,1.28,3,4.93,4.93,0,0,0,3.16,1,5.61,5.61,0,0,0,2.08-.46A5.13,5.13,0,0,0,167.11,91.82Zm-2.9-16.16a2.49,2.49,0,0,0-1.75.66,2.21,2.21,0,0,0-.72,1.71,10.52,10.52,0,0,0,1.62,4.86A7.75,7.75,0,0,0,165.72,81a4.1,4.1,0,0,0,.74-2.6,3.13,3.13,0,0,0-.63-1.94A1.93,1.93,0,0,0,164.21,75.66Z"/></g><path class="cls-1" d="M78.23,38.29a12.82,12.82,0,0,0,1.86,1.17A15,15,0,0,0,83,40.62a13.89,13.89,0,0,0,3.93.5,17.86,17.86,0,0,0,7-1.38A25.06,25.06,0,0,0,100,36.09a29.94,29.94,0,0,0,5-5.17,37.55,37.55,0,0,0,3.78-6,33.6,33.6,0,0,0,2.39-6,19.64,19.64,0,0,0,.84-5.31,13,13,0,0,0-.84-4.89,9.42,9.42,0,0,0-2.28-3.42,9,9,0,0,0-3.37-2,13.3,13.3,0,0,0-4.2-.65,26.37,26.37,0,0,0-8.83,1.55A40.37,40.37,0,0,0,84,8.49a55,55,0,0,0-7.92,6.3A75.83,75.83,0,0,0,69,22.57a78.57,78.57,0,0,0-6,8.65,75.6,75.6,0,0,0-4.57,8.94,54.68,54.68,0,0,0-2.93,8.6,32.18,32.18,0,0,0-1,7.69,24,24,0,0,0,1.19,7.66,17.67,17.67,0,0,0,3.59,6.28,16.78,16.78,0,0,0,6,4.22,21,21,0,0,0,8.37,1.55,32.38,32.38,0,0,0,8.86-1.3,35.09,35.09,0,0,0,9.16-4.15,49.71,49.71,0,0,0,9-7.41,65.1,65.1,0,0,0,8.53-11l1.69,1.29a66.88,66.88,0,0,1-9.19,11.86,52.23,52.23,0,0,1-9.56,7.73,36.14,36.14,0,0,1-9.43,4.2,33.24,33.24,0,0,1-8.81,1.27,25.21,25.21,0,0,1-10.59-2.1A22.79,22.79,0,0,1,51,63.21a26,26,0,0,1-1.57-8.88,33.77,33.77,0,0,1,1.1-8.27,54.32,54.32,0,0,1,3.11-8.9,73.27,73.27,0,0,1,4.86-9,76.63,76.63,0,0,1,6.32-8.66,72.23,72.23,0,0,1,7.57-7.68,55.53,55.53,0,0,1,8.56-6.16A45.31,45.31,0,0,1,90.16,1.5,32.06,32.06,0,0,1,99.84,0a20.39,20.39,0,0,1,5.93.85,13.69,13.69,0,0,1,5,2.7,13.23,13.23,0,0,1,3.42,4.73,17.33,17.33,0,0,1,1.26,7,23.23,23.23,0,0,1-.84,5.91,32.76,32.76,0,0,1-2.46,6.39,38.29,38.29,0,0,1-3.94,6.21A29.82,29.82,0,0,1,103,39a25.3,25.3,0,0,1-6.47,3.67A20.33,20.33,0,0,1,89,44.08a18.11,18.11,0,0,1-7.43-1.41,19.87,19.87,0,0,1-5.42-3.48l1.41-1.53A5.6,5.6,0,0,0,78.23,38.29Z"/><path class="cls-1" d="M146.48,38.77c-.4.8-1,1.85-1.71,3.14s-1.52,2.72-2.36,4.27-1.7,3.18-2.56,4.87-1.64,3.34-2.34,5a48,48,0,0,0-1.74,4.57,12.52,12.52,0,0,0-.68,3.62c0,1,.2,1.63.59,1.92a2.49,2.49,0,0,0,1.52.44,5.81,5.81,0,0,0,2.79-.79,14.62,14.62,0,0,0,2.81-2,26,26,0,0,0,2.7-2.82c.87-1,1.69-2.09,2.46-3.16s1.46-2.07,2.09-3,1.15-1.8,1.59-2.47l1.69,1.29c-.53,1-1.16,2.05-1.88,3.18S150,59,149.09,60.16a39.93,39.93,0,0,1-2.79,3.35,23.48,23.48,0,0,1-3.17,2.86,15.83,15.83,0,0,1-3.49,2,10,10,0,0,1-3.75.73,4.92,4.92,0,0,1-4.12-1.66,6.68,6.68,0,0,1-1.32-4.29q0-.18,0-.81a4.86,4.86,0,0,1,.11-1,39.61,39.61,0,0,1-4.47,4.8,24,24,0,0,1-4.13,3,14.87,14.87,0,0,1-7.38,2,9.7,9.7,0,0,1-3.35-.58,8.26,8.26,0,0,1-2.77-1.69,7.68,7.68,0,0,1-1.87-2.72,9.46,9.46,0,0,1-.68-3.74,18.58,18.58,0,0,1,1.19-6,26.77,26.77,0,0,1,4.25-7.32,34.06,34.06,0,0,1,5.36-5.67,31.69,31.69,0,0,1,5.49-3.72,22.8,22.8,0,0,1,5.13-2,18.44,18.44,0,0,1,4.36-.6c2.87,0,5.05.47,6.51,1.41a6,6,0,0,1,2.68,4.32c.62-.77,1.28-1.54,2-2.31l2.1-2.36ZM132.09,56.31c.41-.65.91-1.47,1.5-2.47s1.22-2,1.88-3.09,1.3-2.09,1.92-3.07,1.17-1.82,1.64-2.49a11.6,11.6,0,0,0-.12-1.34,5,5,0,0,0-.63-1.87,4.44,4.44,0,0,0-1.64-1.64,6,6,0,0,0-3.14-.69,13.53,13.53,0,0,0-3.26.44,17.82,17.82,0,0,0-3.84,1.47,25.26,25.26,0,0,0-4.2,2.75,31.17,31.17,0,0,0-4.31,4.25,33.34,33.34,0,0,0-5,7.68,17.06,17.06,0,0,0-1.76,6.95,6.11,6.11,0,0,0,1.22,4.06,4.32,4.32,0,0,0,3.47,1.43,10.66,10.66,0,0,0,4.83-1.13,19,19,0,0,0,4.22-2.93,37.68,37.68,0,0,0,3.75-4C129.81,59.16,131,57.73,132.09,56.31Z"/><path class="cls-1" d="M181.22,53.54c-.47.68-1,1.59-1.67,2.75s-1.38,2.4-2.22,3.74-1.78,2.7-2.79,4.08a26.68,26.68,0,0,1-3.33,3.74,17.17,17.17,0,0,1-3.91,2.72,9.87,9.87,0,0,1-4.5,1.06,7.82,7.82,0,0,1-2.49-.39A5.58,5.58,0,0,1,158.25,70,6.08,6.08,0,0,1,156.84,68a7.41,7.41,0,0,1-.51-2.88,13.55,13.55,0,0,1,.91-4.73,38.68,38.68,0,0,1,2.14-4.78c.81-1.54,1.62-2.94,2.43-4.22a30.85,30.85,0,0,0,1.78-3.07,4.65,4.65,0,0,0,.57-2,1.61,1.61,0,0,0-.4-1.06,6.77,6.77,0,0,0-1-.9l-1.22-.92a4.24,4.24,0,0,1-1.05-1.18L158.11,46c-.72,1.08-1.5,2.28-2.34,3.62s-1.66,2.66-2.44,3.95l-1.69-1.29,10-15.46,1.36.69c-.06.18-.16.48-.3.87a3.94,3.94,0,0,0-.21,1.3,3,3,0,0,0,.16,1,2.07,2.07,0,0,0,.68.9c1.25,1.11,2.23,2,2.95,2.56a18.84,18.84,0,0,1,1.57,1.43,2.85,2.85,0,0,1,.61.88,2.8,2.8,0,0,1,.12.9,5.64,5.64,0,0,1-.19,1.34,13,13,0,0,1-.63,1.89c-.3.74-.7,1.61-1.22,2.61s-1.16,2.16-1.94,3.48c-.47.8-.94,1.61-1.39,2.43A26.94,26.94,0,0,0,162,61.53a16.34,16.34,0,0,0-.86,2.49,9.36,9.36,0,0,0-.33,2.4,3.17,3.17,0,0,0,.26,1.41,1.86,1.86,0,0,0,.68.8,2.34,2.34,0,0,0,.91.37,5.36,5.36,0,0,0,1,.09,6,6,0,0,0,3.07-.9,15.61,15.61,0,0,0,3-2.33,27.08,27.08,0,0,0,2.86-3.25c.92-1.22,1.81-2.45,2.65-3.72s1.62-2.47,2.34-3.62,1.36-2.16,1.92-3Z"/><path class="cls-1" d="M183.05,58.94a10.52,10.52,0,0,0-.14,1.11c0,.37,0,.74,0,1.11a10,10,0,0,0,.49,3.16A7.83,7.83,0,0,0,184.8,67a6.85,6.85,0,0,0,2.4,1.78,7.79,7.79,0,0,0,3.25.64,20,20,0,0,0,11.86-4.11q5.73-4.1,11.39-13l1.6,1.38A55.74,55.74,0,0,1,209,62.19a37.53,37.53,0,0,1-6.36,5.66A24.21,24.21,0,0,1,196.45,71a19.36,19.36,0,0,1-5.81,1,17.83,17.83,0,0,1-4.26-.56,12.7,12.7,0,0,1-4.15-1.84,10.14,10.14,0,0,1-3.14-3.47,10.68,10.68,0,0,1-1.25-5.4A18.92,18.92,0,0,1,179,54a26.71,26.71,0,0,1,3.12-6,30.73,30.73,0,0,1,4.4-5.06,36.39,36.39,0,0,1,5-3.9,27.12,27.12,0,0,1,5-2.51,12.74,12.74,0,0,1,4.32-.9,8.67,8.67,0,0,1,2.48.37,6.67,6.67,0,0,1,2.27,1.15,5.71,5.71,0,0,1,1.64,2.08,6.84,6.84,0,0,1,.64,3.09A9.65,9.65,0,0,1,206.79,47a15.7,15.7,0,0,1-3.07,4,23.3,23.3,0,0,1-4.45,3.28,35,35,0,0,1-5.3,2.47,40.59,40.59,0,0,1-5.58,1.61A28,28,0,0,1,183.05,58.94Zm.37-2a26.33,26.33,0,0,0,11-3.67,26.88,26.88,0,0,0,4.1-3.07,22.64,22.64,0,0,0,3-3.37,17.17,17.17,0,0,0,1.87-3.28,7.37,7.37,0,0,0,.66-2.82,2.82,2.82,0,0,0-.68-2,2.14,2.14,0,0,0-1.62-.74,9.65,9.65,0,0,0-4.64,1.46,24.41,24.41,0,0,0-5.16,4,37.94,37.94,0,0,0-4.85,6A34.83,34.83,0,0,0,183.42,57Z"/><path class="cls-1" d="M247.64,2.31a4.62,4.62,0,0,1,2.74.78A3.28,3.28,0,0,1,251.48,6a12.33,12.33,0,0,1-.58,3.42,36.67,36.67,0,0,1-1.6,4.31q-1,2.34-2.36,4.9T244,23.68q-1.57,2.54-3.28,4.94c-1.14,1.6-2.28,3.07-3.4,4.43Q234,37.16,231.49,40t-4.24,4.78q-1.78,2-3,3.18T222.09,50c-.62.59-1.2,1.12-1.73,1.6s-1.08,1-1.64,1.59a14.66,14.66,0,0,0-.35,3.34c0,1.07,0,2,0,2.93q0,4,1.31,6a4.23,4.23,0,0,0,3.71,1.94,7.13,7.13,0,0,0,3.21-.81,17.63,17.63,0,0,0,3.21-2.1,29.06,29.06,0,0,0,3.09-2.93q1.5-1.63,2.84-3.33c.89-1.12,1.69-2.2,2.41-3.25l1.88-2.72,1.73,1.29c-.09.12-.4.61-.91,1.45s-1.2,1.87-2,3.07-1.85,2.49-3,3.86a35.52,35.52,0,0,1-3.75,3.81,22.32,22.32,0,0,1-4.24,2.9,9.78,9.78,0,0,1-4.53,1.16,9.61,9.61,0,0,1-3.68-.72,8.13,8.13,0,0,1-3.09-2.26,11.89,11.89,0,0,1-2.16-4,18.11,18.11,0,0,1-.82-5.77,41.12,41.12,0,0,1,1-8.79,68.49,68.49,0,0,1,2.74-9.23,84.3,84.3,0,0,1,4.08-9.16q2.34-4.53,5-8.61a82.08,82.08,0,0,1,5.53-7.57,59.81,59.81,0,0,1,5.68-6,28.66,28.66,0,0,1,5.36-4A9.87,9.87,0,0,1,247.64,2.31Zm-28.08,46.8q4-4.06,7.71-8.24t7-8.26q3.26-4.08,6-7.94a85.41,85.41,0,0,0,4.65-7.27,48,48,0,0,0,3-6.23A14.12,14.12,0,0,0,249,6.32a2.14,2.14,0,0,0-.37-1,1.07,1.07,0,0,0-.89-.62c-1,0-2.25.63-3.85,1.89a38.89,38.89,0,0,0-5.18,5.15,88.93,88.93,0,0,0-5.76,7.59,93.89,93.89,0,0,0-5.6,9.28,96.18,96.18,0,0,0-4.69,10.2A59.37,59.37,0,0,0,219.56,49.11Z"/><path class="cls-1" d="M277.31,38.77c-.4.8-1,1.85-1.71,3.14s-1.52,2.72-2.37,4.27-1.69,3.18-2.55,4.87-1.64,3.34-2.34,5a45.4,45.4,0,0,0-1.74,4.57,12.52,12.52,0,0,0-.68,3.62c0,1,.2,1.63.59,1.92a2.49,2.49,0,0,0,1.52.44,5.81,5.81,0,0,0,2.79-.79,14.93,14.93,0,0,0,2.81-2,28.08,28.08,0,0,0,2.7-2.82c.87-1,1.69-2.09,2.46-3.16s1.46-2.07,2.09-3,1.15-1.8,1.59-2.47l1.69,1.29c-.54,1-1.16,2.05-1.88,3.18s-1.51,2.29-2.37,3.44a39.8,39.8,0,0,1-2.78,3.35A24.09,24.09,0,0,1,274,66.37a15.83,15.83,0,0,1-3.49,2,10,10,0,0,1-3.75.73,4.94,4.94,0,0,1-4.13-1.66,6.73,6.73,0,0,1-1.31-4.29c0-.12,0-.39,0-.81a5.56,5.56,0,0,1,.12-1,39.61,39.61,0,0,1-4.47,4.8,24,24,0,0,1-4.13,3,14.87,14.87,0,0,1-7.38,2,9.7,9.7,0,0,1-3.35-.58,8.26,8.26,0,0,1-2.77-1.69,7.55,7.55,0,0,1-1.87-2.72,9.46,9.46,0,0,1-.68-3.74,18.31,18.31,0,0,1,1.19-6,27,27,0,0,1,4.24-7.32,34.52,34.52,0,0,1,5.37-5.67,32,32,0,0,1,5.48-3.72,23.05,23.05,0,0,1,5.14-2,18.44,18.44,0,0,1,4.36-.6,12.2,12.2,0,0,1,6.51,1.41,6,6,0,0,1,2.67,4.32c.63-.77,1.29-1.54,2-2.31l2.11-2.36ZM262.92,56.31c.41-.65.91-1.47,1.5-2.47s1.22-2,1.88-3.09,1.29-2.09,1.92-3.07,1.17-1.82,1.64-2.49a11.6,11.6,0,0,0-.12-1.34,5.38,5.38,0,0,0-.63-1.87,4.44,4.44,0,0,0-1.64-1.64,6,6,0,0,0-3.14-.69,13.53,13.53,0,0,0-3.26.44,17.82,17.82,0,0,0-3.84,1.47,25.26,25.26,0,0,0-4.2,2.75,30.63,30.63,0,0,0-4.31,4.25,33.34,33.34,0,0,0-5,7.68A16.9,16.9,0,0,0,242,63.19a6.06,6.06,0,0,0,1.22,4.06,4.32,4.32,0,0,0,3.47,1.43,10.64,10.64,0,0,0,4.82-1.13,18.81,18.81,0,0,0,4.22-2.93,35.73,35.73,0,0,0,3.75-4C260.64,59.16,261.8,57.73,262.92,56.31Z"/></g></g></g></g></svg>