<svg xmlns="http://www.w3.org/2000/svg" viewBox="0 0 384.02 227.08"><defs><style>.cls-1{font-size:94.53px;font-family:Parisienne-Regular, Parisienne;}.cls-1,.cls-2,.cls-3,.cls-4,.cls-5{fill:#fff;}.cls-2{stroke:#fff;stroke-miterlimit:10;stroke-width:2.98px;}.cls-3{font-size:31.51px;font-family:CrimsonText-Regular, Crimson Text;}.cls-5{font-size:37.33px;font-family:MonotypeCorsiva, Monotype Corsiva;opacity:0.42;}</style></defs><title>Recurso 41</title><g id="Capa_2" data-name="Capa 2"><g id="webpage-logos"><g id="CursiveBlock-logo"><g id="CursiveFooter-WHITE"><text class="cls-1" transform="translate(30.48 174.82) scale(1.02 1)">Pichardo</text><g id="medium"><g id="lines"><g id="Left"><line class="cls-2" x1="27.01" y1="91.6" x2="179.01" y2="91.6"/><line class="cls-2" x1="27.01" y1="86.68" x2="179.01" y2="86.68"/></g><g id="Right"><line class="cls-2" x1="205.01" y1="91.6" x2="357.01" y2="91.6"/><line class="cls-2" x1="205.01" y1="86.68" x2="357.01" y2="86.68"/></g></g><text id="_" data-name="&amp;" class="cls-3" transform="translate(181.41 94.74) scale(1.02 1)">&amp;</text></g><path class="cls-4" d="M105.25,52a12,12,0,0,0,1.85,1.18A15,15,0,0,0,110,54.37a13.94,13.94,0,0,0,3.94.51,17.68,17.68,0,0,0,7-1.39A24.84,24.84,0,0,0,127,49.85a30.74,30.74,0,0,0,5-5.17,38.29,38.29,0,0,0,3.77-6,33.6,33.6,0,0,0,2.39-6,19.52,19.52,0,0,0,.84-5.3,13.05,13.05,0,0,0-.84-4.9,9.48,9.48,0,0,0-2.27-3.41,9.12,9.12,0,0,0-3.38-2,13.23,13.23,0,0,0-4.19-.64A26.42,26.42,0,0,0,119.52,18,40.42,40.42,0,0,0,111,22.25a53.63,53.63,0,0,0-7.92,6.3A75.72,75.72,0,0,0,96,36.32a78.69,78.69,0,0,0-6,8.66,76.26,76.26,0,0,0-4.57,8.93,55.47,55.47,0,0,0-2.93,8.61,32.1,32.1,0,0,0-1,7.68,24.33,24.33,0,0,0,1.19,7.66,17.74,17.74,0,0,0,3.59,6.28,16.75,16.75,0,0,0,6,4.23,21,21,0,0,0,8.36,1.54,32.69,32.69,0,0,0,8.86-1.29,35.34,35.34,0,0,0,9.17-4.16,49.51,49.51,0,0,0,9-7.4A65.2,65.2,0,0,0,136.23,66l1.69,1.29a67,67,0,0,1-9.19,11.87,52.31,52.31,0,0,1-9.56,7.73,36.91,36.91,0,0,1-9.42,4.2,33.73,33.73,0,0,1-8.82,1.27,25.21,25.21,0,0,1-10.59-2.1A22.84,22.84,0,0,1,78,77a25.89,25.89,0,0,1-1.57-8.88,34.18,34.18,0,0,1,1.1-8.26,53.56,53.56,0,0,1,3.12-8.91,72.56,72.56,0,0,1,4.85-9,75.39,75.39,0,0,1,6.33-8.65,70.46,70.46,0,0,1,7.57-7.69,56.63,56.63,0,0,1,8.55-6.16,45.39,45.39,0,0,1,9.24-4.11,32,32,0,0,1,9.68-1.5,20.49,20.49,0,0,1,5.93.86,13.65,13.65,0,0,1,5,2.7A12.91,12.91,0,0,1,141.2,22a17.29,17.29,0,0,1,1.27,7,23.26,23.26,0,0,1-.85,5.9,32.6,32.6,0,0,1-2.46,6.4,38.21,38.21,0,0,1-3.94,6.2A28.9,28.9,0,0,1,130,52.78a25.6,25.6,0,0,1-6.47,3.67A20.49,20.49,0,0,1,116,57.83a18.31,18.31,0,0,1-7.43-1.4,19.61,19.61,0,0,1-5.41-3.49l1.4-1.52A4.88,4.88,0,0,0,105.25,52Z" transform="translate(0 -13.75)"/><path class="cls-4" d="M173.5,52.53c-.41.8-1,1.84-1.71,3.13s-1.53,2.72-2.37,4.27-1.7,3.18-2.56,4.87-1.64,3.35-2.34,5a47.74,47.74,0,0,0-1.73,4.57,12.19,12.19,0,0,0-.68,3.63c0,1,.19,1.62.58,1.91a2.44,2.44,0,0,0,1.53.44,5.78,5.78,0,0,0,2.78-.78,15.12,15.12,0,0,0,2.82-2,27,27,0,0,0,2.69-2.82c.88-1.05,1.7-2.1,2.46-3.16s1.46-2.08,2.09-3,1.16-1.79,1.59-2.47l1.69,1.29c-.53,1-1.16,2-1.87,3.19s-1.51,2.28-2.37,3.44a39.8,39.8,0,0,1-2.79,3.34,24.12,24.12,0,0,1-3.16,2.87,15.46,15.46,0,0,1-3.5,2,10,10,0,0,1-3.75.74,4.92,4.92,0,0,1-4.12-1.66,6.69,6.69,0,0,1-1.31-4.29c0-.13,0-.4,0-.81a4,4,0,0,1,.12-1,42.06,42.06,0,0,1-4.48,4.8,23.61,23.61,0,0,1-4.13,3,15.11,15.11,0,0,1-3.84,1.54,15.44,15.44,0,0,1-3.54.44,9.51,9.51,0,0,1-3.35-.58,8.08,8.08,0,0,1-2.77-1.68,7.86,7.86,0,0,1-1.87-2.72,9.67,9.67,0,0,1-.68-3.74,18.4,18.4,0,0,1,1.2-6,26.53,26.53,0,0,1,4.24-7.31,35,35,0,0,1,5.36-5.68,31.69,31.69,0,0,1,5.49-3.72,23.61,23.61,0,0,1,5.13-2,18.5,18.5,0,0,1,4.36-.6q4.32,0,6.52,1.41a5.92,5.92,0,0,1,2.67,4.31c.62-.77,1.28-1.54,2-2.31s1.39-1.55,2.11-2.35ZM159.11,70.06c.4-.64.9-1.46,1.5-2.47s1.21-2,1.87-3.09l1.92-3.07c.63-1,1.17-1.81,1.64-2.49,0-.28,0-.72-.11-1.34a5.27,5.27,0,0,0-.64-1.87,4.51,4.51,0,0,0-1.64-1.64,6,6,0,0,0-3.14-.69,14.12,14.12,0,0,0-3.26.44,17.89,17.89,0,0,0-3.84,1.48,25.33,25.33,0,0,0-4.19,2.74,31.23,31.23,0,0,0-4.32,4.25,33.73,33.73,0,0,0-5,7.69,17,17,0,0,0-1.76,6.94A6.08,6.08,0,0,0,139.37,81a4.29,4.29,0,0,0,3.47,1.43,10.53,10.53,0,0,0,4.83-1.13,18.71,18.71,0,0,0,4.22-2.93,37.68,37.68,0,0,0,3.75-4Q157.41,72.19,159.11,70.06Z" transform="translate(0 -13.75)"/><path class="cls-4" d="M208.23,67.29c-.47.68-1,1.6-1.66,2.75s-1.39,2.4-2.23,3.74-1.77,2.7-2.79,4.08a24.49,24.49,0,0,1-3.33,3.74,17,17,0,0,1-3.91,2.73,10,10,0,0,1-4.5,1.06,7.87,7.87,0,0,1-2.49-.39,5.69,5.69,0,0,1-2.06-1.23,5.88,5.88,0,0,1-1.4-2,7.31,7.31,0,0,1-.52-2.89,13.87,13.87,0,0,1,.91-4.73,39.22,39.22,0,0,1,2.14-4.77q1.22-2.31,2.43-4.23A32.22,32.22,0,0,0,190.61,62a4.76,4.76,0,0,0,.56-2,1.54,1.54,0,0,0-.4-1.06,6.16,6.16,0,0,0-1-.9l-1.22-.93A4.24,4.24,0,0,1,187.51,56l-2.39,3.74c-.72,1.07-1.5,2.28-2.34,3.62s-1.66,2.65-2.44,3.94L178.65,66l10-15.46,1.36.69c-.06.19-.16.48-.3.88a3.88,3.88,0,0,0-.21,1.29,3,3,0,0,0,.16,1,2,2,0,0,0,.68.9c1.25,1.11,2.24,2,2.95,2.57a17.64,17.64,0,0,1,1.58,1.43,2.65,2.65,0,0,1,.6.87,2.8,2.8,0,0,1,.12.9,5.64,5.64,0,0,1-.19,1.34,12.22,12.22,0,0,1-.63,1.89c-.3.74-.7,1.61-1.22,2.61s-1.16,2.16-1.94,3.49c-.47.8-.93,1.61-1.39,2.42A26.78,26.78,0,0,0,189,75.28a17.57,17.57,0,0,0-.87,2.49,9.36,9.36,0,0,0-.33,2.4,3.26,3.26,0,0,0,.26,1.41,2,2,0,0,0,.68.81,2.5,2.5,0,0,0,.91.37,5.36,5.36,0,0,0,1,.09,6,6,0,0,0,3.07-.9,16,16,0,0,0,3-2.33,27.2,27.2,0,0,0,2.86-3.26c.92-1.21,1.81-2.45,2.65-3.71s1.63-2.47,2.34-3.62,1.36-2.17,1.93-3Z" transform="translate(0 -13.75)"/><path class="cls-4" d="M210.06,72.7c-.06.36-.11.73-.14,1.1s0,.74,0,1.11a10.29,10.29,0,0,0,.49,3.16,7.76,7.76,0,0,0,1.46,2.63,6.58,6.58,0,0,0,2.39,1.78,7.84,7.84,0,0,0,3.26.65A20,20,0,0,0,229.32,79q5.73-4.11,11.4-13l1.59,1.39A55.57,55.57,0,0,1,236,76a37.4,37.4,0,0,1-6.35,5.65,23.58,23.58,0,0,1-6.21,3.14,19.11,19.11,0,0,1-5.82,1,17.79,17.79,0,0,1-4.26-.55,12.72,12.72,0,0,1-4.15-1.85,10.2,10.2,0,0,1-3.14-3.46,10.73,10.73,0,0,1-1.24-5.4,18.87,18.87,0,0,1,1.19-6.67,27.2,27.2,0,0,1,3.12-6,30.66,30.66,0,0,1,4.4-5,36.39,36.39,0,0,1,5-3.9,26.65,26.65,0,0,1,5-2.52,12.64,12.64,0,0,1,4.31-.9,9,9,0,0,1,2.48.37A6.74,6.74,0,0,1,232.68,51,5.78,5.78,0,0,1,234.32,53a7,7,0,0,1,.63,3.1,9.53,9.53,0,0,1-1.15,4.59,15.65,15.65,0,0,1-3.07,4A23,23,0,0,1,226.28,68a34.05,34.05,0,0,1-5.3,2.47,40.24,40.24,0,0,1-5.58,1.62A28,28,0,0,1,210.06,72.7Zm.37-2a25.73,25.73,0,0,0,5.91-1.29A26.43,26.43,0,0,0,225.5,64a21.59,21.59,0,0,0,3-3.37,16.88,16.88,0,0,0,1.87-3.27,7.41,7.41,0,0,0,.66-2.82,2.82,2.82,0,0,0-.68-2,2.1,2.1,0,0,0-1.62-.74,9.66,9.66,0,0,0-4.64,1.45,24.18,24.18,0,0,0-5.15,4,37.09,37.09,0,0,0-4.86,6A34.76,34.76,0,0,0,210.43,70.71Z" transform="translate(0 -13.75)"/><path class="cls-4" d="M274.65,16.06a4.58,4.58,0,0,1,2.75.79,3.29,3.29,0,0,1,1.1,2.86,12.38,12.38,0,0,1-.59,3.41,37.76,37.76,0,0,1-1.59,4.32c-.68,1.55-1.46,3.18-2.37,4.89s-1.88,3.41-2.93,5.1-2.14,3.34-3.28,4.94-2.27,3.08-3.4,4.43q-3.37,4.11-5.84,6.93c-1.64,1.87-3.05,3.47-4.24,4.77s-2.19,2.37-3,3.19-1.53,1.51-2.15,2.1l-1.74,1.59c-.53.48-1.08,1-1.64,1.59a14.74,14.74,0,0,0-.35,3.35c0,1.06,0,2,0,2.93q0,4,1.32,6a4.18,4.18,0,0,0,3.7,1.94,7.13,7.13,0,0,0,3.21-.81,16.64,16.64,0,0,0,3.21-2.1,28.08,28.08,0,0,0,3.09-2.93q1.5-1.64,2.84-3.32c.89-1.12,1.7-2.21,2.41-3.25L267.06,66l1.73,1.29c-.09.13-.39.61-.91,1.46s-1.2,1.87-2,3.07-1.84,2.48-3,3.85a35.52,35.52,0,0,1-3.75,3.81,21.62,21.62,0,0,1-4.24,2.91,9.65,9.65,0,0,1-8.2.44,8,8,0,0,1-3.1-2.27,11.65,11.65,0,0,1-2.15-3.94,17.81,17.81,0,0,1-.83-5.77,41.12,41.12,0,0,1,1-8.79,68.49,68.49,0,0,1,2.74-9.23,84.44,84.44,0,0,1,4.08-9.17q2.35-4.52,5-8.6a77.32,77.32,0,0,1,5.53-7.57,58.83,58.83,0,0,1,5.67-6,29.49,29.49,0,0,1,5.37-4A9.84,9.84,0,0,1,274.65,16.06Zm-28.08,46.8q4-4.05,7.72-8.23t7-8.27q3.25-4.08,6-7.94a85.08,85.08,0,0,0,4.64-7.26,48.08,48.08,0,0,0,3-6.24A13.88,13.88,0,0,0,276,20.08a2.1,2.1,0,0,0-.38-1,1.07,1.07,0,0,0-.89-.63q-1.45,0-3.84,1.89a38.9,38.9,0,0,0-5.18,5.15,91,91,0,0,0-5.77,7.59,98.58,98.58,0,0,0-10.29,19.48A60.52,60.52,0,0,0,246.57,62.86Z" transform="translate(0 -13.75)"/><path class="cls-4" d="M304.32,52.53c-.4.8-1,1.84-1.71,3.13s-1.52,2.72-2.36,4.27-1.7,3.18-2.56,4.87-1.64,3.35-2.34,5-1.28,3.14-1.74,4.57a12.52,12.52,0,0,0-.68,3.63,2.33,2.33,0,0,0,.59,1.91,2.43,2.43,0,0,0,1.52.44,5.79,5.79,0,0,0,2.79-.78,15.45,15.45,0,0,0,2.82-2,27,27,0,0,0,2.69-2.82c.88-1.05,1.7-2.1,2.46-3.16s1.46-2.08,2.09-3L309.48,66l1.69,1.29c-.53,1-1.16,2-1.88,3.19s-1.5,2.28-2.36,3.44a39.8,39.8,0,0,1-2.79,3.34A23.56,23.56,0,0,1,301,80.13a15.4,15.4,0,0,1-3.49,2,10,10,0,0,1-3.75.74,4.92,4.92,0,0,1-4.12-1.66,6.7,6.7,0,0,1-1.32-4.29q0-.2,0-.81a4.69,4.69,0,0,1,.11-1A41.17,41.17,0,0,1,284,79.9a23.61,23.61,0,0,1-4.13,3A15.41,15.41,0,0,1,276,84.44a15.57,15.57,0,0,1-3.54.44,9.51,9.51,0,0,1-3.35-.58,8.08,8.08,0,0,1-2.77-1.68,7.86,7.86,0,0,1-1.87-2.72,9.67,9.67,0,0,1-.68-3.74,18.63,18.63,0,0,1,1.19-6,26.59,26.59,0,0,1,4.25-7.31,34.15,34.15,0,0,1,5.36-5.68,31.69,31.69,0,0,1,5.49-3.72,23.23,23.23,0,0,1,5.13-2,18.44,18.44,0,0,1,4.36-.6c2.87,0,5.05.47,6.51,1.41a6,6,0,0,1,2.68,4.31c.62-.77,1.28-1.54,2-2.31l2.1-2.35ZM289.93,70.06c.41-.64.91-1.46,1.5-2.47s1.22-2,1.88-3.09l1.92-3.07c.63-1,1.17-1.81,1.64-2.49a11.78,11.78,0,0,0-.12-1.34,5.05,5.05,0,0,0-.63-1.87,4.51,4.51,0,0,0-1.64-1.64,6,6,0,0,0-3.14-.69,14.12,14.12,0,0,0-3.26.44,17.89,17.89,0,0,0-3.84,1.48,25.81,25.81,0,0,0-4.2,2.74,31.75,31.75,0,0,0-4.31,4.25,33.39,33.39,0,0,0-5,7.69A17,17,0,0,0,269,76.94,6.08,6.08,0,0,0,270.2,81a4.29,4.29,0,0,0,3.47,1.43,10.53,10.53,0,0,0,4.83-1.13,18.71,18.71,0,0,0,4.22-2.93,37.68,37.68,0,0,0,3.75-4C287.65,72.92,288.81,71.48,289.93,70.06Z" transform="translate(0 -13.75)"/><text class="cls-5" transform="translate(127.82 215.63)">Abogados</text></g></g></g></g></svg>