<svg xmlns="http://www.w3.org/2000/svg" viewBox="0 0 255.66 419.54"><defs><style>.cls-1{opacity:0.1;}.cls-2{fill:none;stroke:#fff;stroke-miterlimit:10;stroke-width:5.21px;}.cls-3{fill:#fff;}</style></defs><title>Recurso 43</title><g id="Capa_2" data-name="Capa 2"><g id="webpage-logos"><g id="_3.0" data-name="3.0"><g id="white-oval-logo" class="cls-1"><ellipse id="Oval" class="cls-2" cx="127.83" cy="209.77" rx="213.27" ry="114.45" transform="matrix(0.28, -0.96, 0.96, 0.28, -109.48, 273.22)"/><g id="main-form"><path id="C" class="cls-3" d="M180.42,32.45c-12.89-21.62-64.49,60.9-64.49,60.9S41.12,210.92,48.61,252.65c5.69,31.68,40.56,33.63,57,32.73l2.45-8.58c-14.45-.87-27.42-8.93-31.22-33-9.81-62.07,74.9-188,74.9-188s13.06-18,20.81-18.71c17.66-1.7-8.11,80.86-8.11,80.86a7.83,7.83,0,0,0,8.82-5.45C178.48,95.38,190.81,49.84,180.42,32.45Z"/><path id="P-new" class="cls-3" d="M105.38,285.37,77,383l0,.11c-1.17,4.28,5.33,6,6.64,1.81l30.24-98.36a3.44,3.44,0,0,1,2.78-2.4c15.55-2.25,74.23-15,89-67.66,12.58-44.84-1.9-64.62-10.58-72-3.54-3-11.25-3.33-15.84-2.59-12.4,2-36.09,13.07-53.78,74.36l-17.59,60.57m63.5-29.92c-6.91,8.63-15.85,16.65-26,21a127.51,127.51,0,0,1-22.81,6.68c-2.56.49-4.72-.92-4-3.4L139.47,204A126.64,126.64,0,0,1,146,187.26c4.84-10.25,11.44-22.61,19.4-28.8,6.48-5,14-7,21.23,7.91C200.2,194.35,184.88,230,171.36,246.9Z"/></g></g></g></g></g></svg>